<?xml version="1.0" encoding="UTF-8" standalone="no"?>
<!-- Created with Inkscape (http://www.inkscape.org/) -->

<svg
   width="24mm"
   height="24mm"
   viewBox="0 0 24 24"
   version="1.1"
   id="svg1"
   inkscape:version="1.4.3 (1:1.4.3+202512261034+0d15f75042)"
   sodipodi:docname="inugami_default_icons.svg"
   xmlns:inkscape="http://www.inkscape.org/namespaces/inkscape"
   xmlns:sodipodi="http://sodipodi.sourceforge.net/DTD/sodipodi-0.dtd"
   xmlns="http://www.w3.org/2000/svg"
   xmlns:svg="http://www.w3.org/2000/svg">
  <sodipodi:namedview
     id="namedview1"
     pagecolor="#ffffff"
     bordercolor="#666666"
     borderopacity="1.0"
     inkscape:showpageshadow="2"
     inkscape:pageopacity="0.0"
     inkscape:pagecheckerboard="0"
     inkscape:deskcolor="#d1d1d1"
     inkscape:document-units="mm"
     inkscape:zoom="3.0387735"
     inkscape:cx="51.501041"
     inkscape:cy="31.591693"
     inkscape:window-width="1371"
     inkscape:window-height="1056"
     inkscape:window-x="2757"
     inkscape:window-y="310"
     inkscape:window-maximized="0"
     inkscape:current-layer="g1" />
  <defs
     id="defs1" />
  <g
     inkscape:label="inugami-logo"
     inkscape:groupmode="layer"
     id="layer1"
     style="display:inline">
    <g
       id="g1"
       transform="matrix(0.3800351,0,0,0.3800351,-103.75134,-124.02385)"
       style="stroke-width:2.63133">
      <path
         id="path11"
         style="baseline-shift:baseline;display:inline;overflow:visible;vector-effect:none;fill:#cc0000;fill-opacity:1;stroke-width:2.63133;enable-background:accumulate;stop-color:#000000"
         d="m 303.53083,332.80811 c 0,0 -1.19365,1.46714 -2.5554,1.43144 -1.36175,-0.0357 -1.99817,-1.08593 -3.28611,-1.02526 -1.28794,0.0607 -1.53316,1.29703 -2.56315,1.27175 -1.02999,-0.0253 -1.33532,-0.86454 -1.33532,-0.86454 l -0.34881,0.25993 c 0,0 0.44739,1.13686 1.69447,1.19476 1.24709,0.0579 1.43139,-0.80019 2.41742,-0.94878 0.98603,-0.1486 1.4883,0.83153 3.57394,0.93431 2.08564,0.10278 5.30666,-1.6955 5.30666,-1.6955 z m -23.26577,2.85822 c -0.73341,0.0149 -1.52504,0.36246 -2.19418,1.30483 -0.46729,0.65808 -0.70798,1.5429 -0.53847,2.39159 0.33904,1.69741 1.02173,3.10652 5.2834,3.42356 4.26166,0.31704 11.30888,0.97511 13.13253,2.57297 1.82364,1.59787 5.7864,8.93533 11.76363,8.12819 2.65739,-0.55378 3.44519,-1.97902 4.25607,-4.32842 0.81088,-2.34938 -1.3295,-6.12569 -3.48454,-6.47712 -1.02281,-0.1668 -3.00762,-0.0634 -3.90261,1.45469 1.04757,-0.68772 2.71649,-0.8045 3.51607,-0.68213 2.52963,0.38713 3.38916,3.86658 3.03547,5.06274 -0.35368,1.19617 -1.32288,3.3382 -3.69228,3.92431 -3.64119,0.90069 -7.24463,-3.72871 -10.14925,-7.51117 -1.78988,-2.69635 -11.66844,-3.02055 -14.30766,-3.03754 -2.95202,-0.0191 -4.20319,-1.38392 -4.46071,-2.67323 -0.48031,-2.40466 2.27989,-3.19672 3.26544,-1.99729 0.25577,0.31128 0.32066,0.69839 0.19068,1.05523 -0.2541,0.69763 -1.11081,1.1887 -2.00763,0.16278 -0.20235,0.15712 0.26683,1.38258 1.05524,1.30897 0.78841,-0.0736 1.24989,-0.57773 1.48311,-1.21802 0.2282,-0.62649 0.30321,-1.27345 -0.0873,-1.82986 -0.36738,-0.52341 -1.21402,-1.05429 -2.15698,-1.03508 z m 28.11508,3.77548 c -0.36839,-0.006 -0.76811,0.0118 -1.20612,0.0568 -1.22986,0.16226 -4.98242,1.40749 -5.14698,5.29942 -0.0719,1.70164 0.9641,3.35459 2.37764,4.15995 1.41661,0.80711 2.83278,0.68644 3.8163,-0.0806 0.87367,-0.68137 1.29883,-3.2166 -0.59945,-3.80028 1.823,2.87655 -0.78334,4.1841 -2.77761,3.04787 -1.16135,-0.66168 -1.69621,-1.82944 -1.63504,-3.27628 0.0612,-1.44685 0.53069,-2.77596 2.61896,-3.65404 1.75102,-0.73626 3.7825,-0.85384 5.31544,0.17053 4.02352,2.6887 4.24665,3.59101 7.86877,2.08101 l -1.03404,-2.10013 c -1.67379,0.58106 -2.33361,0.8861 -4.03232,0.15245 -1.94033,-0.83801 -2.98677,-2.01648 -5.56555,-2.05673 z m -5.42034,33.18454 c -0.071,0.009 -0.12892,2.9862 -0.0858,3.09439 0.0432,0.10819 2.61473,3.87181 2.68407,3.87108 0.0693,-7.3e-4 2.86872,-4.9309 2.87373,-5.02812 0.005,-0.0972 -0.58433,-1.63291 -0.67283,-1.63142 -0.0885,0.001 -2.15502,3.23488 -2.30373,3.22254 -0.14871,-0.0123 -2.42446,-3.53654 -2.49546,-3.52847 z m 19.48667,1.82831 c -0.11358,-0.10546 -5.85875,6.46868 -5.95106,6.46886 -0.0923,1.9e-4 -3.93051,-4.38681 -3.93051,-4.38681 l -0.8692,1.89704 c 0,0 4.78309,6.32231 4.85242,6.32158 1.88998,-3.46843 4.07536,-6.79598 5.89835,-10.30067 z"
         inkscape:label="red"
         class="inu-red" />
      <path
         id="rect3"
         style="display:inline;fill:#0d0d13;fill-opacity:1;stroke:none;stroke-width:1.22357;stroke-linecap:round;stroke-linejoin:round"
         d="m 324.08616,326.69065 c -0.0134,-4.3e-4 -0.0285,-4.2e-4 -0.045,5.2e-4 -1.35043,0.0771 -12.91702,4.70357 -15.89205,5.98465 -0.64896,-0.16946 -1.28422,-0.45699 -1.95699,-0.5085 -0.72198,-0.0121 -10.1399,-0.30971 -11.09906,-0.24081 -0.39044,0.0281 -3.12626,1.6062 -4.91081,2.52129 -1.92301,-0.23398 -4.202,-0.56084 -6.21306,-0.84181 -2.08446,-0.1954 -4.14878,-0.69534 -6.23631,-0.85007 -1.29016,0.16215 -3.73819,0.53438 -4.19509,1.07332 -0.49748,0.58673 -0.61071,4.45446 -0.52762,4.67258 1.1505,3.0177 3.81189,7.56558 4.66638,8.48062 0.25615,0.22028 1.18482,0.61672 4.85138,1.92753 0,0 11.05177,7.85283 11.31198,8.13387 0.26022,0.28102 2.6789,4.38474 2.6789,4.38474 0.53553,1.96715 1.40473,11.85417 1.69344,11.93674 0.2604,0.0745 2.22083,-2.31714 2.96623,-3.34398 l -0.63666,6.78718 c -0.0161,0.16987 0.0329,0.3398 0.13643,0.47543 l 4.63227,6.06888 c 0.28887,0.37754 0.86695,0.34793 1.11621,-0.0568 l 2.53112,-4.11499 c 3.68588,5.09046 6.8896,9.35802 7.60263,9.83402 0.27973,0.21255 0.59516,0.16812 0.87954,0.002 4.90751,-7.03185 8.32857,-15.1039 11.45666,-20.18584 2.45671,0.11115 7.21081,0.46346 7.26002,0.39377 0.0492,-0.0697 0.25716,-1.16746 -3.41426,-5.92057 -1.658,-2.14649 -3.3313,-4.19304 -4.64571,-5.78621 1.32923,-0.047 5.09114,0.10362 5.1816,-0.0687 0.0905,-0.17238 -8.59143,-10.34103 -8.73797,-10.48928 2.23545,-3.92823 5.27843,-8.96762 9.90999,-16.52147 0.2867,-0.46926 -0.0751,-1.06663 -0.62374,-1.02991 -3.9139,0.90202 -7.78831,1.96229 -11.67474,2.97398 0.3902,-0.89202 2.32714,-5.2592 2.01228,-5.66788 -0.011,-0.0143 -0.0373,-0.0223 -0.0775,-0.0238 z m -1.52394,1.83607 c -0.68175,1.51006 -1.45261,2.97934 -2.22777,4.44314 -2.1237,0.51142 -4.1845,0.98463 -6.26525,1.64279 -2.6566,-0.82869 -0.72818,-0.21176 -4.37079,-1.26917 7.07894,-2.71674 10.67996,-4.05484 12.86381,-4.81676 z m 9.91361,2.58847 c -2.78984,4.56029 -9.17834,15.14732 -11.15332,18.711 -5.05439,-1.8024 -5.81396,-2.0215 -5.87458,-1.8898 -0.063,0.13684 2.93917,2.62155 5.15421,4.22713 -2.36912,4.46723 -3.18138,5.93952 -5.3666,11.1988 -11.79153,-7.92921 -18.45456,-11.63626 -36.73419,-17.47594 -0.94367,-0.80182 -1.77141,-2.17362 -2.4412,-3.55069 0,0 3.59719,1.98051 3.83646,2.06913 2.40627,0.7833 13.58269,4.86594 13.62656,4.70927 -1.73577,-1.46631 -2.59795,-2.5676 -2.77968,-2.68666 -1.66684,-0.46997 -9.94753,-2.77789 -10.34458,-2.96467 -0.39705,-0.18677 -5.0736,-2.76883 -5.0736,-2.76883 -0.4908,-1.18293 -0.83387,-2.17695 -0.99632,-2.54454 -0.009,-0.14386 -0.013,-0.29537 -0.0134,-0.45269 0.93316,-0.29629 3.11921,-1.00601 3.20445,-1.17719 0.0838,-0.16823 0.12476,-1.69631 0.13901,-2.38383 0.0145,-0.002 0.0292,-0.004 0.0439,-0.006 0.4583,0.0489 12.02817,1.67304 12.47314,1.67483 1.68365,-0.8587 3.35974,-1.7603 5.06584,-2.52698 1.12021,-0.0481 10.78262,0.20272 10.83758,0.21601 3.356,0.90876 7.07829,2.34247 7.53701,2.36471 6.23371,-1.46895 12.64075,-3.16872 18.85931,-4.74286 z m -3.37757,2.65255 c -0.25113,-0.26522 -11.48952,6.26164 -11.57862,6.75049 -0.0891,0.48885 2.2855,4.89393 2.44843,4.89893 0.16292,0.005 9.38134,-11.38419 9.13019,-11.64942 z m -54.48918,0.97875 h 5.1e-4 v 5.2e-4 h -5.1e-4 z m 21.61832,1.02423 c -0.0492,-0.002 -4.05361,1.33233 -4.06746,1.46968 -0.0139,0.13735 4.83433,2.34817 4.83433,2.34817 3.2346,-1.8477 5.4281,-2.04121 5.4281,-2.04121 -0.0842,-0.0975 -6.14578,-1.7744 -6.19497,-1.77664 z m -0.031,0.97307 c 0.0576,0.004 2.4721,0.68559 2.47323,0.74465 0.001,0.0591 -1.67928,0.99424 -1.82107,1.02526 -0.0354,0.004 -2.3072,-1.06703 -2.30477,-1.11672 0.002,-0.0497 1.6083,-0.64875 1.65261,-0.65319 z m 27.7027,10.53217 c 1.90484,2.23187 5.81397,6.87303 7.9437,9.30693 -1.33541,0.0533 -5.57512,-0.21148 -5.61361,0.092 -0.0385,0.30342 5.00895,6.26326 8.30492,11.3869 -2.77077,-0.17325 -5.99941,-0.65119 -6.31537,-0.49144 -0.85398,0.43192 -8.11641,15.04399 -11.35642,20.04064 -0.94834,-1.07753 -3.33456,-4.11322 -7.15202,-8.95243 0.4103,-0.76207 2.04192,-3.52135 2.06655,-3.83697 0.0246,-0.31563 -6.50555,-13.93869 -6.50555,-13.93869 1.45186,0.90157 10.97206,7.31201 11.18071,7.21558 0.20864,-0.0965 5.96893,-16.68939 7.44709,-20.8225 z m -39.56606,2.29288 c 4.03137,1.94761 9.00893,4.4468 9.18445,4.55218 0.88581,0.53185 9.90711,11.00605 10.02782,10.97349 0.0476,-0.0129 0.26949,-1.35424 0.53898,-3.11816 l 6.0601,12.68605 -4.35633,7.07967 -3.87263,-5.07049 c -0.1447,-1.74231 0.59857,-9.60113 0.40514,-9.68158 -0.19343,-0.0805 -2.6868,2.85179 -3.44216,3.89175 -0.74128,-2.65929 -0.98497,-9.7272 -1.13275,-10.05468 -0.14777,-0.32748 -2.94389,-4.5675 -3.10834,-4.70359 -0.16445,-0.1361 -6.76736,-4.28826 -10.30428,-6.55464 z"
         class="inu-black" />
    </g>
  </g>
  <g
     inkscape:groupmode="layer"
     id="layer2"
     inkscape:label="check"
     style="display:none"
     sodipodi:insensitive="true">
    <path
       d="M 7.8473755,20.462526 C 7.1818511,20.462808 6.5435826,20.198276 6.0733819,19.727289 L 0.71000716,14.365901 c -0.57710202,-0.577287 -0.57710202,-1.513069 0,-2.090356 v 0 c 0.57728754,-0.577103 1.51306924,-0.577103 2.09035624,0 L 7.8473755,17.322557 21.199636,3.9702974 c 0.577286,-0.5771025 1.513068,-0.5771025 2.090356,0 v 0 c 0.577102,0.577287 0.577102,1.5130687 0,2.0903559 L 9.6213696,19.727289 C 9.151169,20.198276 8.5129005,20.462804 7.8473755,20.462526 Z"
       id="path90"
       style="stroke-width:5.64445"
       inkscape:label="path" />
  </g>
</svg>
