<?xml version="1.0" encoding="UTF-8" standalone="no"?>
<!-- Created with Inkscape (http://www.inkscape.org/) -->

<svg
   width="24mm"
   height="24mm"
   viewBox="0 0 24 24"
   version="1.1"
   id="svg1"
   inkscape:version="1.4.3 (1:1.4.3+202512261034+0d15f75042)"
   sodipodi:docname="inugami_default_icons.svg"
   xmlns:inkscape="http://www.inkscape.org/namespaces/inkscape"
   xmlns:sodipodi="http://sodipodi.sourceforge.net/DTD/sodipodi-0.dtd"
   xmlns:xlink="http://www.w3.org/1999/xlink"
   xmlns="http://www.w3.org/2000/svg"
   xmlns:svg="http://www.w3.org/2000/svg">
  <sodipodi:namedview
     id="namedview1"
     pagecolor="#ffffff"
     bordercolor="#666666"
     borderopacity="1.0"
     inkscape:showpageshadow="2"
     inkscape:pageopacity="0.0"
     inkscape:pagecheckerboard="0"
     inkscape:deskcolor="#d1d1d1"
     inkscape:document-units="mm"
     inkscape:zoom="3.0387735"
     inkscape:cx="144.30164"
     inkscape:cy="108.43191"
     inkscape:window-width="2228"
     inkscape:window-height="1571"
     inkscape:window-x="3088"
     inkscape:window-y="281"
     inkscape:window-maximized="0"
     inkscape:current-layer="layer13" />
  <defs
     id="defs1">
    <linearGradient
       id="a"
       x1="-7274.7998"
       y1="2082.5071"
       x2="-7243.8721"
       y2="2046.343"
       gradientTransform="matrix(-0.023,-0.116,-0.116,0.023,79.68,-889.484)"
       gradientUnits="userSpaceOnUse">
      <stop
         offset="0"
         stop-color="#f69923"
         id="stop1" />
      <stop
         offset="0.312"
         stop-color="#f79a23"
         id="stop2" />
      <stop
         offset="0.838"
         stop-color="#e97826"
         id="stop3" />
    </linearGradient>
    <linearGradient
       id="b"
       x1="-7503.689"
       y1="2086.595"
       x2="-7283.0361"
       y2="2086.595"
       gradientTransform="matrix(-0.023,-0.116,-0.116,0.023,79.68,-889.484)"
       gradientUnits="userSpaceOnUse">
      <stop
         offset="0.323"
         stop-color="#9e2064"
         id="stop4" />
      <stop
         offset="0.63"
         stop-color="#c92037"
         id="stop5" />
      <stop
         offset="0.751"
         stop-color="#cd2335"
         id="stop6" />
      <stop
         offset="1"
         stop-color="#e97826"
         id="stop7" />
    </linearGradient>
    <linearGradient
       id="c"
       x1="-7477.0532"
       y1="2064.4199"
       x2="-7345.5659"
       y2="2064.4199"
       gradientTransform="matrix(-0.023,-0.116,-0.116,0.023,79.68,-889.484)"
       gradientUnits="userSpaceOnUse">
      <stop
         offset="0"
         stop-color="#282662"
         id="stop8" />
      <stop
         offset="0.095"
         stop-color="#662e8d"
         id="stop9" />
      <stop
         offset="0.788"
         stop-color="#9f2064"
         id="stop10" />
      <stop
         offset="0.949"
         stop-color="#cd2032"
         id="stop11" />
    </linearGradient>
    <linearGradient
       id="d"
       x1="-7491.2959"
       y1="2088.6331"
       x2="-7270.6431"
       y2="2088.6331"
       xlink:href="#b"
       gradientTransform="matrix(0.85714024,0,0,0.85714024,-1.7236616,-1.7142071)" />
    <linearGradient
       id="e"
       x1="-7475.2031"
       y1="2085.6101"
       x2="-7359.2441"
       y2="2085.6101"
       xlink:href="#c"
       gradientTransform="matrix(0.85714024,0,0,0.85714024,-1.7236616,-1.7142071)" />
    <linearGradient
       id="f"
       x1="-7491.2959"
       y1="2065.7991"
       x2="-7270.6431"
       y2="2065.7991"
       xlink:href="#b"
       gradientTransform="matrix(0.85714024,0,0,0.85714024,-1.7236616,-1.7142071)" />
    <linearGradient
       id="g"
       x1="-7504.9839"
       y1="2066.905"
       x2="-7284.3311"
       y2="2066.905"
       xlink:href="#b"
       gradientTransform="matrix(0.85714024,0,0,0.85714024,-1.7236616,-1.7142071)" />
    <linearGradient
       id="h"
       x1="-7491.2959"
       y1="2058.959"
       x2="-7270.6431"
       y2="2058.959"
       xlink:href="#b"
       gradientTransform="matrix(0.85714024,0,0,0.85714024,-1.7236616,-1.7142071)" />
    <linearGradient
       id="i"
       x1="-7491.2959"
       y1="2059.762"
       x2="-7270.6431"
       y2="2059.762"
       xlink:href="#b"
       gradientTransform="matrix(0.85714024,0,0,0.85714024,-1.7236616,-1.7142071)" />
    <linearGradient
       id="j"
       x1="-8307.6318"
       y1="2040.0081"
       x2="-8276.7041"
       y2="2003.844"
       gradientTransform="matrix(0.06342838,-0.09599971,-0.09599971,-0.06342838,738.91665,-666.43503)"
       xlink:href="#a" />
    <linearGradient
       id="k"
       x1="-8536.5215"
       y1="2044.0959"
       x2="-8315.8682"
       y2="2044.0959"
       gradientTransform="matrix(0.06342838,-0.09599971,-0.09599971,-0.06342838,738.91665,-666.43503)"
       xlink:href="#b" />
    <linearGradient
       id="l"
       x1="-8509.8848"
       y1="2021.921"
       x2="-8378.3975"
       y2="2021.921"
       gradientTransform="matrix(0.06342838,-0.09599971,-0.09599971,-0.06342838,738.91665,-666.43503)"
       xlink:href="#c" />
    <linearGradient
       id="m"
       x1="-8524.1279"
       y1="2046.134"
       x2="-8303.4746"
       y2="2046.134"
       gradientTransform="matrix(0.06342838,-0.09599971,-0.09599971,-0.06342838,738.91665,-666.43503)"
       xlink:href="#b" />
    <linearGradient
       id="n"
       x1="-8508.0352"
       y1="2043.111"
       x2="-8392.0762"
       y2="2043.111"
       gradientTransform="matrix(0.06342838,-0.09599971,-0.09599971,-0.06342838,738.91665,-666.43503)"
       xlink:href="#c" />
    <linearGradient
       id="o"
       x1="-8524.1279"
       y1="2023.3"
       x2="-8303.4746"
       y2="2023.3"
       gradientTransform="matrix(0.06342838,-0.09599971,-0.09599971,-0.06342838,738.91665,-666.43503)"
       xlink:href="#b" />
    <linearGradient
       id="p"
       x1="-8537.8164"
       y1="2024.407"
       x2="-8317.1631"
       y2="2024.407"
       gradientTransform="matrix(0.06342838,-0.09599971,-0.09599971,-0.06342838,738.91665,-666.43503)"
       xlink:href="#b" />
    <linearGradient
       id="q"
       x1="-8524.1279"
       y1="2016.46"
       x2="-8303.4746"
       y2="2016.46"
       gradientTransform="matrix(0.06342838,-0.09599971,-0.09599971,-0.06342838,738.91665,-666.43503)"
       xlink:href="#b" />
    <linearGradient
       id="r"
       x1="-8524.1279"
       y1="2017.2629"
       x2="-8303.4746"
       y2="2017.2629"
       gradientTransform="matrix(0.06342838,-0.09599971,-0.09599971,-0.06342838,738.91665,-666.43503)"
       xlink:href="#b" />
  </defs>
  <g
     inkscape:label="inugami-logo"
     inkscape:groupmode="layer"
     id="layer1"
     style="display:inline"
     sodipodi:insensitive="true">
    <g
       id="g6">
      <g
         id="g1"
         transform="matrix(0.3800351,0,0,0.3800351,-103.75134,-124.02385)"
         style="stroke-width:2.63133">
        <path
           id="path11"
           style="baseline-shift:baseline;display:inline;overflow:visible;vector-effect:none;fill:#cc0000;fill-opacity:1;stroke-width:2.63133;enable-background:accumulate;stop-color:#000000"
           d="m 303.53083,332.80811 c 0,0 -1.19365,1.46714 -2.5554,1.43144 -1.36175,-0.0357 -1.99817,-1.08593 -3.28611,-1.02526 -1.28794,0.0607 -1.53316,1.29703 -2.56315,1.27175 -1.02999,-0.0253 -1.33532,-0.86454 -1.33532,-0.86454 l -0.34881,0.25993 c 0,0 0.44739,1.13686 1.69447,1.19476 1.24709,0.0579 1.43139,-0.80019 2.41742,-0.94878 0.98603,-0.1486 1.4883,0.83153 3.57394,0.93431 2.08564,0.10278 5.30666,-1.6955 5.30666,-1.6955 z m -23.26577,2.85822 c -0.73341,0.0149 -1.52504,0.36246 -2.19418,1.30483 -0.46729,0.65808 -0.70798,1.5429 -0.53847,2.39159 0.33904,1.69741 1.02173,3.10652 5.2834,3.42356 4.26166,0.31704 11.30888,0.97511 13.13253,2.57297 1.82364,1.59787 5.7864,8.93533 11.76363,8.12819 2.65739,-0.55378 3.44519,-1.97902 4.25607,-4.32842 0.81088,-2.34938 -1.3295,-6.12569 -3.48454,-6.47712 -1.02281,-0.1668 -3.00762,-0.0634 -3.90261,1.45469 1.04757,-0.68772 2.71649,-0.8045 3.51607,-0.68213 2.52963,0.38713 3.38916,3.86658 3.03547,5.06274 -0.35368,1.19617 -1.32288,3.3382 -3.69228,3.92431 -3.64119,0.90069 -7.24463,-3.72871 -10.14925,-7.51117 -1.78988,-2.69635 -11.66844,-3.02055 -14.30766,-3.03754 -2.95202,-0.0191 -4.20319,-1.38392 -4.46071,-2.67323 -0.48031,-2.40466 2.27989,-3.19672 3.26544,-1.99729 0.25577,0.31128 0.32066,0.69839 0.19068,1.05523 -0.2541,0.69763 -1.11081,1.1887 -2.00763,0.16278 -0.20235,0.15712 0.26683,1.38258 1.05524,1.30897 0.78841,-0.0736 1.24989,-0.57773 1.48311,-1.21802 0.2282,-0.62649 0.30321,-1.27345 -0.0873,-1.82986 -0.36738,-0.52341 -1.21402,-1.05429 -2.15698,-1.03508 z m 28.11508,3.77548 c -0.36839,-0.006 -0.76811,0.0118 -1.20612,0.0568 -1.22986,0.16226 -4.98242,1.40749 -5.14698,5.29942 -0.0719,1.70164 0.9641,3.35459 2.37764,4.15995 1.41661,0.80711 2.83278,0.68644 3.8163,-0.0806 0.87367,-0.68137 1.29883,-3.2166 -0.59945,-3.80028 1.823,2.87655 -0.78334,4.1841 -2.77761,3.04787 -1.16135,-0.66168 -1.69621,-1.82944 -1.63504,-3.27628 0.0612,-1.44685 0.53069,-2.77596 2.61896,-3.65404 1.75102,-0.73626 3.7825,-0.85384 5.31544,0.17053 4.02352,2.6887 4.24665,3.59101 7.86877,2.08101 l -1.03404,-2.10013 c -1.67379,0.58106 -2.33361,0.8861 -4.03232,0.15245 -1.94033,-0.83801 -2.98677,-2.01648 -5.56555,-2.05673 z m -5.42034,33.18454 c -0.071,0.009 -0.12892,2.9862 -0.0858,3.09439 0.0432,0.10819 2.61473,3.87181 2.68407,3.87108 0.0693,-7.3e-4 2.86872,-4.9309 2.87373,-5.02812 0.005,-0.0972 -0.58433,-1.63291 -0.67283,-1.63142 -0.0885,0.001 -2.15502,3.23488 -2.30373,3.22254 -0.14871,-0.0123 -2.42446,-3.53654 -2.49546,-3.52847 z m 19.48667,1.82831 c -0.11358,-0.10546 -5.85875,6.46868 -5.95106,6.46886 -0.0923,1.9e-4 -3.93051,-4.38681 -3.93051,-4.38681 l -0.8692,1.89704 c 0,0 4.78309,6.32231 4.85242,6.32158 1.88998,-3.46843 4.07536,-6.79598 5.89835,-10.30067 z"
           inkscape:label="red"
           class="inu-red" />
        <path
           id="rect3"
           style="display:inline;fill:#0d0d13;fill-opacity:1;stroke:none;stroke-width:1.22357;stroke-linecap:round;stroke-linejoin:round"
           d="m 324.08616,326.69065 c -0.0134,-4.3e-4 -0.0285,-4.2e-4 -0.045,5.2e-4 -1.35043,0.0771 -12.91702,4.70357 -15.89205,5.98465 -0.64896,-0.16946 -1.28422,-0.45699 -1.95699,-0.5085 -0.72198,-0.0121 -10.1399,-0.30971 -11.09906,-0.24081 -0.39044,0.0281 -3.12626,1.6062 -4.91081,2.52129 -1.92301,-0.23398 -4.202,-0.56084 -6.21306,-0.84181 -2.08446,-0.1954 -4.14878,-0.69534 -6.23631,-0.85007 -1.29016,0.16215 -3.73819,0.53438 -4.19509,1.07332 -0.49748,0.58673 -0.61071,4.45446 -0.52762,4.67258 1.1505,3.0177 3.81189,7.56558 4.66638,8.48062 0.25615,0.22028 1.18482,0.61672 4.85138,1.92753 0,0 11.05177,7.85283 11.31198,8.13387 0.26022,0.28102 2.6789,4.38474 2.6789,4.38474 0.53553,1.96715 1.40473,11.85417 1.69344,11.93674 0.2604,0.0745 2.22083,-2.31714 2.96623,-3.34398 l -0.63666,6.78718 c -0.0161,0.16987 0.0329,0.3398 0.13643,0.47543 l 4.63227,6.06888 c 0.28887,0.37754 0.86695,0.34793 1.11621,-0.0568 l 2.53112,-4.11499 c 3.68588,5.09046 6.8896,9.35802 7.60263,9.83402 0.27973,0.21255 0.59516,0.16812 0.87954,0.002 4.90751,-7.03185 8.32857,-15.1039 11.45666,-20.18584 2.45671,0.11115 7.21081,0.46346 7.26002,0.39377 0.0492,-0.0697 0.25716,-1.16746 -3.41426,-5.92057 -1.658,-2.14649 -3.3313,-4.19304 -4.64571,-5.78621 1.32923,-0.047 5.09114,0.10362 5.1816,-0.0687 0.0905,-0.17238 -8.59143,-10.34103 -8.73797,-10.48928 2.23545,-3.92823 5.27843,-8.96762 9.90999,-16.52147 0.2867,-0.46926 -0.0751,-1.06663 -0.62374,-1.02991 -3.9139,0.90202 -7.78831,1.96229 -11.67474,2.97398 0.3902,-0.89202 2.32714,-5.2592 2.01228,-5.66788 -0.011,-0.0143 -0.0373,-0.0223 -0.0775,-0.0238 z m -1.52394,1.83607 c -0.68175,1.51006 -1.45261,2.97934 -2.22777,4.44314 -2.1237,0.51142 -4.1845,0.98463 -6.26525,1.64279 -2.6566,-0.82869 -0.72818,-0.21176 -4.37079,-1.26917 7.07894,-2.71674 10.67996,-4.05484 12.86381,-4.81676 z m 9.91361,2.58847 c -2.78984,4.56029 -9.17834,15.14732 -11.15332,18.711 -5.05439,-1.8024 -5.81396,-2.0215 -5.87458,-1.8898 -0.063,0.13684 2.93917,2.62155 5.15421,4.22713 -2.36912,4.46723 -3.18138,5.93952 -5.3666,11.1988 -11.79153,-7.92921 -18.45456,-11.63626 -36.73419,-17.47594 -0.94367,-0.80182 -1.77141,-2.17362 -2.4412,-3.55069 0,0 3.59719,1.98051 3.83646,2.06913 2.40627,0.7833 13.58269,4.86594 13.62656,4.70927 -1.73577,-1.46631 -2.59795,-2.5676 -2.77968,-2.68666 -1.66684,-0.46997 -9.94753,-2.77789 -10.34458,-2.96467 -0.39705,-0.18677 -5.0736,-2.76883 -5.0736,-2.76883 -0.4908,-1.18293 -0.83387,-2.17695 -0.99632,-2.54454 -0.009,-0.14386 -0.013,-0.29537 -0.0134,-0.45269 0.93316,-0.29629 3.11921,-1.00601 3.20445,-1.17719 0.0838,-0.16823 0.12476,-1.69631 0.13901,-2.38383 0.0145,-0.002 0.0292,-0.004 0.0439,-0.006 0.4583,0.0489 12.02817,1.67304 12.47314,1.67483 1.68365,-0.8587 3.35974,-1.7603 5.06584,-2.52698 1.12021,-0.0481 10.78262,0.20272 10.83758,0.21601 3.356,0.90876 7.07829,2.34247 7.53701,2.36471 6.23371,-1.46895 12.64075,-3.16872 18.85931,-4.74286 z m -3.37757,2.65255 c -0.25113,-0.26522 -11.48952,6.26164 -11.57862,6.75049 -0.0891,0.48885 2.2855,4.89393 2.44843,4.89893 0.16292,0.005 9.38134,-11.38419 9.13019,-11.64942 z m -54.48918,0.97875 h 5.1e-4 v 5.2e-4 h -5.1e-4 z m 21.61832,1.02423 c -0.0492,-0.002 -4.05361,1.33233 -4.06746,1.46968 -0.0139,0.13735 4.83433,2.34817 4.83433,2.34817 3.2346,-1.8477 5.4281,-2.04121 5.4281,-2.04121 -0.0842,-0.0975 -6.14578,-1.7744 -6.19497,-1.77664 z m -0.031,0.97307 c 0.0576,0.004 2.4721,0.68559 2.47323,0.74465 0.001,0.0591 -1.67928,0.99424 -1.82107,1.02526 -0.0354,0.004 -2.3072,-1.06703 -2.30477,-1.11672 0.002,-0.0497 1.6083,-0.64875 1.65261,-0.65319 z m 27.7027,10.53217 c 1.90484,2.23187 5.81397,6.87303 7.9437,9.30693 -1.33541,0.0533 -5.57512,-0.21148 -5.61361,0.092 -0.0385,0.30342 5.00895,6.26326 8.30492,11.3869 -2.77077,-0.17325 -5.99941,-0.65119 -6.31537,-0.49144 -0.85398,0.43192 -8.11641,15.04399 -11.35642,20.04064 -0.94834,-1.07753 -3.33456,-4.11322 -7.15202,-8.95243 0.4103,-0.76207 2.04192,-3.52135 2.06655,-3.83697 0.0246,-0.31563 -6.50555,-13.93869 -6.50555,-13.93869 1.45186,0.90157 10.97206,7.31201 11.18071,7.21558 0.20864,-0.0965 5.96893,-16.68939 7.44709,-20.8225 z m -39.56606,2.29288 c 4.03137,1.94761 9.00893,4.4468 9.18445,4.55218 0.88581,0.53185 9.90711,11.00605 10.02782,10.97349 0.0476,-0.0129 0.26949,-1.35424 0.53898,-3.11816 l 6.0601,12.68605 -4.35633,7.07967 -3.87263,-5.07049 c -0.1447,-1.74231 0.59857,-9.60113 0.40514,-9.68158 -0.19343,-0.0805 -2.6868,2.85179 -3.44216,3.89175 -0.74128,-2.65929 -0.98497,-9.7272 -1.13275,-10.05468 -0.14777,-0.32748 -2.94389,-4.5675 -3.10834,-4.70359 -0.16445,-0.1361 -6.76736,-4.28826 -10.30428,-6.55464 z"
           class="inu-black" />
      </g>
    </g>
  </g>
  <g
     inkscape:groupmode="layer"
     id="layer2"
     inkscape:label="check"
     style="display:none"
     sodipodi:insensitive="true">
    <path
       d="M 7.8473755,20.462526 C 7.1818511,20.462808 6.5435826,20.198276 6.0733819,19.727289 L 0.71000716,14.365901 c -0.57710202,-0.577287 -0.57710202,-1.513069 0,-2.090356 v 0 c 0.57728754,-0.577103 1.51306924,-0.577103 2.09035624,0 L 7.8473755,17.322557 21.199636,3.9702974 c 0.577286,-0.5771025 1.513068,-0.5771025 2.090356,0 v 0 c 0.577102,0.577287 0.577102,1.5130687 0,2.0903559 L 9.6213696,19.727289 C 9.151169,20.198276 8.5129005,20.462804 7.8473755,20.462526 Z"
       id="path90"
       style="stroke-width:5.64445"
       inkscape:label="path" />
  </g>
  <g
     inkscape:groupmode="layer"
     id="layer8"
     inkscape:label="java"
     sodipodi:insensitive="true"
     style="display:none">
    <g
       id="g9">
      <g
         id="g8">
        <path
           id="path2"
           style="clip-rule:evenodd;fill:#3174b9;fill-opacity:1;fill-rule:evenodd;stroke-width:1.0981"
           d="m 16.727144,8.9296875 c -0.220323,-0.010561 -0.457791,0.022082 -0.702282,0.1080037 -0.171475,0.060678 -0.261483,0.2020549 -0.261483,0.2020549 0,0 0.108601,-0.044048 0.350366,-0.094568 0.988868,-0.206144 2.404953,1.3236149 -0.658358,2.9150679 -0.01408,0.03792 -0.06111,0.08061 -0.06098,0.08061 3.579196,-0.94087 2.874998,-3.1372478 1.332735,-3.2111736 z M 9.9301432,9.0836833 c -0.3905199,0.01019 -1.3045451,0.094641 -2.3672973,0.6087483 -1.6759697,0.8103544 4.1449971,1.1798034 7.1587361,0.3870564 0.31355,-0.213729 0.746208,-0.3994587 0.746208,-0.3994587 0,0 -1.232636,0.2204222 -2.460832,0.3234947 -1.50328,0.1261 -3.1158,0.151109 -3.9253418,0.04289 -1.9166516,-0.256258 1.0505818,-0.9611814 1.0505818,-0.9611814 0,0 -0.07188,-0.00495 -0.2020548,-0.00155 z m -0.488859,1.8536337 c -2.7647947,0.917619 1.5389678,1.95916 5.4032878,0.82889 C 14.434045,11.621554 14.173295,11.356413 14.173295,11.356413 12.284003,11.719941 11.1931,11.708458 9.8107707,11.565702 8.7419912,11.45518 9.4412842,10.937317 9.4412842,10.937317 Z m 0.3906738,1.787488 c -2.510433,0.701318 1.527673,2.150047 4.724259,0.780314 -0.523892,-0.2033 -0.899169,-0.438216 -0.899169,-0.438216 -1.425535,0.269667 -2.086652,0.290911 -3.380673,0.143143 C 9.2085443,13.08747 9.831958,12.724805 9.831958,12.724805 Z m -1.62264,1.18494 c -1.0788061,-0.04149 -3.527639,1.036207 -1.4366048,1.375627 6.5164258,1.05659 11.8790978,-0.476005 10.1890418,-1.238684 v 5.17e-4 c 0,0 0.461545,0.380577 -0.508496,0.674894 -1.844596,0.558702 -7.6791169,0.727204 -9.2996905,0.02222 -0.5821333,-0.253549 0.5100762,-0.605322 0.8536947,-0.679545 0.3583817,-0.07747 0.5632731,-0.06356 0.5632731,-0.06356 -0.080978,-0.05702 -0.2071031,-0.08554 -0.3612183,-0.09147 z m 9.786483,0.968933 c 0,0 -0.205449,0.527296 -2.429826,0.945679 -2.509621,0.472425 -5.6053682,0.41719 -7.4408896,0.114205 0,0 0.3761588,0.311295 2.3083866,0.435632 2.939923,0.187994 7.455193,-0.104112 7.562329,-1.495516 z" />
        <path
           id="path3"
           style="clip-rule:evenodd;fill:#ca3132;fill-opacity:1;fill-rule:evenodd;stroke-width:1.0981"
           d="M 13.608988,0.09818522 C 14.293381,2.7937687 11.195367,3.607685 10.077421,5.286499 c -0.7614593,1.1436793 0.37376,2.3727529 1.92133,3.7687622 -0.603533,-1.3640448 -2.6497189,-2.5572035 10e-4,-4.6508789 3.305347,-2.6090354 1.609204,-4.30619708 1.609204,-4.30619708 z m 2.045354,3.33519698 c -1.35e-4,-1.354e-4 -5.589679,1.3955193 -2.920236,4.4715616 0.788006,0.9070607 -0.206705,1.7228923 -0.206705,1.7228923 0,0 2.000161,-1.0323667 1.081587,-2.3254395 C 12.751364,6.0970907 12.093414,5.4983437 15.654342,3.4333822 Z M 6.4063273,17.485238 v 4.268473 c 0,0.621141 -0.041722,0.880811 -0.1426269,1.082621 -0.1171581,0.22646 -0.3692332,0.469886 -0.6630087,0.620634 L 5.9789632,23.9019 C 6.364569,23.759549 6.7169142,23.507462 6.9349772,23.188765 7.1533111,22.861671 7.2197144,22.525606 7.2197144,21.6948 v -4.209562 z m 2.9822469,1.261938 c -0.5478663,0 -1.0285531,0.135056 -1.4190348,0.307475 l 0.1126546,0.473356 c 0.3075907,-0.112959 0.7051942,-0.217558 1.0955404,-0.217558 0.5409588,0 0.7735962,0.217557 0.7735962,0.668176 v 0.337964 H 9.6810628 c -1.3140664,0 -1.9068603,0.509937 -1.9068603,1.276408 0,0.66042 0.3909561,1.035596 1.1265462,1.035596 0.4728309,0 0.8256818,-0.194942 1.1554853,-0.480591 l 0.05994,0.405143 h 0.600997 v -2.672188 c 0,-0.683038 -0.389576,-1.133781 -1.3286008,-1.133781 z m 6.9809688,0 c -0.548408,0 -1.028552,0.135056 -1.419034,0.307475 l 0.112654,0.473356 c 0.307591,-0.112959 0.706093,-0.217558 1.096574,-0.217558 0.540146,0 0.77308,0.217557 0.77308,0.668176 v 0.337964 h -0.270268 c -1.314202,0 -1.906861,0.509937 -1.906861,1.276408 0,0.66042 0.389787,1.035596 1.125513,1.035596 0.473237,0 0.825903,-0.194942 1.156519,-0.480591 l 0.06046,0.405143 h 0.60048 v -2.672188 c 0,-0.683038 -0.391041,-1.133781 -1.329118,-1.133781 z m -5.201749,0.0677 1.148767,3.738273 h 0.954464 C 13.81862,21.39714 14.20953,20.045776 14.42651,18.814872 h -0.810287 c -0.127723,0.975594 -0.383371,1.989066 -0.743107,2.987415 l -0.158647,-0.689881 -0.713134,-2.297534 z m 6.894153,0.0041 v 0.300757 h 0.05943 v -0.237711 h 0.001 l 0.08837,0.237711 h 0.04082 l 0.08888,-0.237711 h 10e-4 v 0.237711 h 0.05736 v -0.300757 h -0.0863 l -0.08165,0.21239 -0.08165,-0.21239 z m -0.290939,5.17e-4 v 0.04961 h 0.0894 v 0.250631 h 0.06201 v -0.250631 h 0.0894 v -0.04961 z m -8.1416216,1.984375 h 0.3219442 v 0.886251 c -0.2771558,0.240099 -0.5699613,0.375171 -0.8330241,0.375171 -0.3749058,0 -0.5782593,-0.225081 -0.5782593,-0.585494 0,-0.390211 0.2176291,-0.675928 1.0893392,-0.675928 z m 6.9809696,0 h 0.322461 v 0.886251 c -0.278064,0.240275 -0.570918,0.375171 -0.833541,0.375171 -0.374906,0 -0.57826,-0.225081 -0.57826,-0.585494 0,-0.390211 0.218171,-0.675928 1.08934,-0.675928 z" />
      </g>
    </g>
  </g>
  <g
     inkscape:groupmode="layer"
     id="layer9"
     inkscape:label="maven"
     style="display:none"
     sodipodi:insensitive="true">
    <g
       id="g11">
      <g
         id="g10">
        <path
           d="M 3.3694418,0.45847909 A 8.2039962,8.2039962 0 0 0 3.0254221,2.741906 l 1.2272891,0.5942942 a 15.418938,15.418938 0 0 1 0.085999,-2.1853815 c 0.0043,-0.049883 0.00946,-0.079124 0.00946,-0.079124 0,0.026662 -0.00774,0.052464 -0.00946,0.079124 A 13.708303,13.708303 0 0 0 4.3361355,3.3069574 23.90073,23.90073 0 0 0 6.1542765,1.5868617 2.6154055,2.6154055 0 0 0 4.7842203,0.12392053 c 0,0 -1.0870995,-0.43862446 -1.4147785,0.33455856 z"
           style="fill:#f69923;fill-opacity:1;stroke-width:6.61458"
           id="path11-2" />
        <path
           d="m 6.5619392,6.6413629 a 0.01548086,0.01548086 0 0 0 0.010321,-0.011181 l -0.068795,0.06106 c 0,0.00602 -0.00774,0.011181 -0.0086,0.016341 z"
           style="fill:#999999;stroke-width:6.61458"
           id="path12" />
        <path
           d="M 7.3136211,8.763961 C 7.2809458,8.803526 7.2422269,8.8422247 7.2035282,8.8809234 7.2413607,8.843091 7.2800796,8.803526 7.3136211,8.763961 Z"
           style="fill:#999999;stroke-width:6.61458"
           id="path13" />
        <path
           d="M 7.6249584,9.8863235 C 7.5673435,9.9491158 7.5079961,10.008443 7.4477824,10.06779 v 0 c 0.030963,-0.02838 0.062792,-0.06193 0.092023,-0.092889 a 1.042378,1.042378 0 0 0 0.085153,-0.088577 z"
           style="fill:#999999;stroke-width:6.61458"
           id="path15" />
        <path
           d="M 7.6249584,9.8863235 C 7.5673435,9.9491158 7.5079961,10.008443 7.4477824,10.06779 v 0 c 0.030963,-0.02838 0.062792,-0.06193 0.092023,-0.092889 a 1.042378,1.042378 0 0 0 0.085153,-0.088577 z"
           style="opacity:0.35;isolation:isolate;fill:#999999;stroke-width:6.61458"
           id="path16" />
        <path
           d="m 7.1742933,8.9067289 v 0 c 0.01032,-0.00774 0.018061,-0.018061 0.027518,-0.025806 0.038699,-0.038699 0.077397,-0.077397 0.1100929,-0.1169624 -0.04301,0.047301 -0.092023,0.092889 -0.1384774,0.1427683 z"
           style="fill:#999999;stroke-width:6.61458"
           id="path17" />
        <path
           d="m 7.1742933,8.9067289 v 0 c 0.01032,-0.00774 0.018061,-0.018061 0.027518,-0.025806 0.038699,-0.038699 0.077397,-0.077397 0.1100929,-0.1169624 -0.04301,0.047301 -0.092023,0.092889 -0.1384774,0.1427683 z"
           style="opacity:0.35;isolation:isolate;fill:#999999;stroke-width:6.61458"
           id="path18" />
        <path
           d="M 4.5769489,6.9595807 Q 4.4909495,6.3472264 4.4221339,5.7555128 C 4.3748332,5.3452701 4.3361345,4.9427672 4.3094624,4.5445653 c 0,-0.024073 -0.0043,-0.048167 0,-0.069662 C 4.2776331,4.0861618 4.2587169,3.7068801 4.2501149,3.3353402 L 3.0245461,2.7444868 c 0,0.073973 -0.0086,0.1505039 -0.01118,0.2313522 -0.012041,0.2932763 -0.021495,0.602034 -0.024073,0.9331528 0,0.3698215 0,0.7551225 0.00688,1.1584836 0.0086,0.3715399 0.024073,0.7585613 0.043856,1.1524643 0.019781,0.3371381 0.042143,0.677717 0.069662,1.0251775 0,0.014621 0,0.024073 0,0.039565 L 4.7489404,8.1146276 C 4.6947501,7.726746 4.6345566,7.341445 4.5769215,6.9595827 Z"
           style="fill:#d43732;fill-opacity:1;stroke-width:6.61458"
           id="path19" />
        <path
           d="m 7.0022838,16.65232 c 0.085999,0.306177 0.1823332,0.621814 0.2820957,0.941752 0,0 0,0.0095 0,0.0129 0.013761,0.04643 0.02494,0.09031 0.042144,0.135033 0.065371,0.215872 0.1281429,0.407662 0.2640336,0.846287 A 1.6573121,1.6573121 0 0 1 8.5314492,18.813626 1.3442548,1.3442548 0 0 0 7.636139,18.326838 2.8803003,2.8803003 0 0 0 9.2074458,15.766475 C 9.1971253,15.675319 9.1850848,15.580697 9.1670146,15.4861 a 1.1584844,1.1584844 0 0 1 -0.6587967,0.990776 v 0 0 a 3.2389401,3.2389401 0 0 0 0.5246284,-2.040894 c -0.012901,-0.165995 -0.034408,-0.344019 -0.064504,-0.53237 a 2.6283062,2.6283062 0 0 1 -1.523994,2.117433 L 6.94724,16.47859 c 0.018061,0.05761 0.033542,0.114384 0.055044,0.17373 z"
           style="fill:#802d90;fill-opacity:1;stroke-width:6.61458"
           id="path20" />
        <path
           d="M 6.3598279,15.253022 C 6.2557584,14.86428 6.1516969,14.469519 6.045911,14.071317 5.9461525,13.689455 5.850685,13.304154 5.7552154,12.913692 5.6597478,12.523229 5.567725,12.130189 5.4765604,11.737146 5.3854039,11.344103 5.2959597,10.933861 5.2116666,10.533078 5.1273796,10.132295 5.0482497,9.7323731 4.9691339,9.3350314 4.9407494,9.1905508 4.9149436,9.0494949 4.8891579,8.9050083 4.8435695,8.6590347 4.8031585,8.4113408 4.7584364,8.1627867 c 0,-0.012901 -0.0043,-0.027518 -0.0086,-0.040431 L 3.120046,7.2906896 a 0.58397249,0.58397249 0 0 1 0.00602,0.078264 c 0.032675,0.3689614 0.064505,0.743942 0.1083604,1.1180625 0.043856,0.3741205 0.091157,0.7654429 0.1479254,1.1533245 0.048167,0.3268178 0.099759,0.6510564 0.1539488,0.9787344 0.011181,0.0645 0.024073,0.132454 0.035254,0.196093 0.074819,0.405083 0.1556611,0.796404 0.2425328,1.161924 0.09718,0.414544 0.2021116,0.803285 0.3070373,1.166225 0.070528,0.237374 0.1401897,0.466146 0.2115718,0.682879 0.061926,0.182333 0.1290092,0.36552 0.1935137,0.546131 0.1556611,0.424004 0.3285382,0.835107 0.5160286,1.236749 l 1.6469919,0.834247 C 6.6032316,16.140586 6.517212,15.832689 6.4312167,15.52049 6.4071433,15.43018 6.3847822,15.343314 6.3598279,15.253022 Z"
           style="fill:#e97826;fill-opacity:1;stroke-width:6.61458"
           id="path21" />
        <path
           d="m 5.064596,15.659825 a 12.780311,12.780311 0 0 0 0.7577031,1.399298 c 0.00946,0.01376 0.018921,0.03268 0.028384,0.04643 a 3.3232249,3.3232249 0 0 0 -1.2556696,-0.09718 4.6184569,4.6184569 0 0 1 2.0236926,1.179127 2.122598,2.122598 0 0 1 -0.956374,0.479906 2.1157176,2.1157176 0 0 0 1.049259,-0.09289 2.5801435,2.5801435 0 0 0 -0.6381561,1.244489 2.6523876,2.6523876 0 0 1 1.036358,-1.09742 c 0.4945277,1.63925 1.0896801,3.416111 1.7493371,5.280694 a 0.49624768,0.49624768 0 0 0 0.077397,-0.465291 c -0.1212734,-0.33457 -0.9064907,-2.552622 -1.8018009,-5.562791 -0.025806,-0.086 -0.048167,-0.172018 -0.076551,-0.258014 -0.00774,-0.02494 -0.013761,-0.04643 -0.021495,-0.07224 Q 6.8990698,17.170921 6.7563056,16.670374 c -0.020649,-0.0774 -0.04301,-0.149658 -0.063638,-0.227913 v 0 l -1.646992,-0.834247 a 0.30703714,0.30703714 0 0 0 0.018921,0.05161 z"
           style="fill:#cd2032;fill-opacity:1;stroke-width:6.61458"
           id="path22" />
        <path
           d="m 4.9433292,8.149887 c 0.00946,0.055036 0.019781,0.1040695 0.029251,0.1599721 0.031829,0.163417 0.060193,0.3285382 0.093755,0.4945277 0.034408,0.181467 0.07224,0.3663807 0.1083605,0.5564517 0.018061,0.095468 0.03612,0.1909351 0.056769,0.2889752 0.059347,0.2924161 0.123852,0.5917133 0.1900689,0.9004693 0.085999,0.379282 0.1720189,0.768882 0.2674744,1.174825 0.085999,0.383581 0.1874904,0.783503 0.2889753,1.190307 0.098912,0.387882 0.1986709,0.785224 0.3087577,1.196326 0.096334,0.363801 0.2003832,0.737921 0.305317,1.118063 0,0.01806 0.012041,0.03783 0.015481,0.0559 0.1057818,0.377561 0.2167309,0.767163 0.331979,1.163644 a 0.0593432,0.0593432 0 0 0 0.00774,0.02494 l 0.4971083,-0.457545 c -0.012901,0 -0.022361,0.01118 -0.038699,0.01806 A 4.7706854,4.7706854 0 0 0 8.616615,13.356618 6.4245574,6.4245574 0 0 0 8.6011341,11.862714 10.25607,10.25607 0 0 0 8.3620401,10.584684 C 8.2639939,10.190783 8.1435887,9.7727983 7.9965195,9.3324549 A 2.4863983,2.4863983 0 0 1 7.6172378,9.8803046 l -0.085999,0.094601 c -0.028384,0.031829 -0.060194,0.059347 -0.092023,0.092889 v 0 A 2.9043815,2.9043815 0 0 0 7.7969965,7.911655 2.7315119,2.7315119 0 0 1 7.3050494,8.7639635 c -0.032675,0.039565 -0.071374,0.078264 -0.1100929,0.1169624 -0.010321,0.00774 -0.018061,0.018061 -0.030963,0.028384 v 0 a 3.0273683,3.0273683 0 0 0 0.319078,-0.7000781 1.2978121,1.2978121 0 0 0 0.036986,-0.1462131 c 0.017201,-0.074819 0.029251,-0.1505039 0.040431,-0.2261931 0.0043,-0.049879 0.012041,-0.096334 0.016341,-0.1470591 a 2.1165778,2.1165778 0 0 0 0,-0.3552002 c 0,-0.039565 0,-0.074819 -0.00946,-0.1118053 C 7.5579089,7.167725 7.5510286,7.1161133 7.5407175,7.0662341 7.5011526,6.8366022 7.4547181,6.636211 7.4125746,6.4642001 7.3902136,6.3782007 7.3695648,6.2990708 7.3472038,6.2276867 7.3368833,6.1993023 7.3317229,6.1717841 7.3213979,6.1416873 7.294746,6.0634236 7.273231,5.9911833 7.2491577,5.9309757 a 2.1088373,2.1088373 0 0 0 -0.09031,-0.208131 v 0 a 0.45754554,0.45754554 0 0 1 -0.03612,0.098912 3.2243194,3.2243194 0 0 1 -0.5590303,0.8032854 L 7.0221024,6.2061999 6.5611162,6.622464 a 0.01548086,0.01548086 0 0 0 -0.00774,0.011181 0.93057177,0.93057177 0 0 0 -0.067083,0.074819 c 0,-0.00602 0.00774,-0.011181 0.0086,-0.016341 L 4.9296056,8.1241019 c 0.012901,0.011181 0.014621,0.019781 0.013761,0.025806 z"
           style="fill:#e97826;fill-opacity:1;stroke-width:6.61458"
           id="path23" />
        <path
           d="m 4.3361355,3.3069574 c 0.018921,0.3440197 0.049013,0.7293207 0.085999,1.1559051 a 0.41712321,0.41712321 0 0 0 0.00774,0.067083 c 0.035254,0.3724001 0.080842,0.7740428 0.1393234,1.2118077 0.049879,0.3775613 0.1049358,0.7740428 0.172019,1.2040679 0.055903,0.3724001 0.1246981,0.7620021 0.195226,1.1756856 L 6.5017311,6.687807 A 2.568963,2.568963 0 0 0 6.8947739,5.2713091 c 0,-0.1229858 -0.00946,-0.251995 -0.018921,-0.3844409 A 12.319325,12.319325 0 0 0 6.7399692,3.6552769 10.716196,10.716196 0 0 0 6.5068961,2.5483953 5.8698265,5.8698265 0 0 0 6.3271461,1.986784 C 6.2712435,1.8465944 6.2127623,1.7184494 6.1551272,1.5963219 A 24.769378,24.769378 0 0 1 4.3361355,3.3069574 Z"
           style="fill:#e97826;fill-opacity:1;stroke-width:6.61458"
           id="path24" />
        <path
           d="m 7.5415338,9.9766285 c -0.028384,0.031829 -0.060193,0.059347 -0.092023,0.09289 v 0 a 1.1963266,1.1963266 0 0 1 0.092023,-0.09289 z"
           style="fill:#999999;stroke-width:6.61458"
           id="path25" />
        <path
           d="m 7.5415338,9.9766285 c -0.028384,0.031829 -0.060193,0.059347 -0.092023,0.09289 v 0 a 1.1963266,1.1963266 0 0 1 0.092023,-0.09289 z"
           style="opacity:0.35;isolation:isolate;fill:#999999;stroke-width:6.61458"
           id="path26" />
        <path
           d="m 7.5415338,9.9766285 c -0.028384,0.031829 -0.060193,0.059347 -0.092023,0.09289 v 0 a 1.1963266,1.1963266 0 0 1 0.092023,-0.09289 z"
           style="fill:#999999;stroke-width:6.61458"
           id="path27" />
        <path
           d="m 7.1742933,8.9093091 c 0.01032,-0.00774 0.018061,-0.018061 0.030963,-0.028384 -0.010321,0.00774 -0.018061,0.018061 -0.030963,0.028384 z"
           style="fill:#999999;stroke-width:6.61458"
           id="path28" />
        <path
           d="m 7.1742933,8.9093091 c 0.01032,-0.00774 0.018061,-0.018061 0.030963,-0.028384 -0.010321,0.00774 -0.018061,0.018061 -0.030963,0.028384 z"
           style="opacity:0.35;isolation:isolate;fill:#999999;stroke-width:6.61458"
           id="path29" />
        <path
           d="m 7.1742933,8.9093091 c 0.01032,-0.00774 0.018061,-0.018061 0.030963,-0.028384 -0.010321,0.00774 -0.018061,0.018061 -0.030963,0.028384 z"
           style="fill:#999999;stroke-width:6.61458"
           id="path30" />
        <path
           d="M 19.410195,0.76637623 A 9.279056,9.279056 0 0 0 17.322858,2.3333833 l 0.516028,1.4534803 a 17.44005,17.44005 0 0 1 1.806102,-1.6899937 c 0.04392,-0.03612 0.07051,-0.056769 0.07051,-0.056769 -0.02236,0.020649 -0.04815,0.03612 -0.07051,0.056769 a 15.504943,15.504943 0 0 0 -1.720096,1.731277 27.033023,27.033023 0 0 0 2.827836,0.061926 2.9585646,2.9585646 0 0 0 0.06104,-2.2696662 c 0,0 -0.526351,-1.21610763 -1.403573,-0.85403047 z"
           style="fill:#f39124;fill-opacity:1;stroke-width:6.61458"
           id="path31" />
        <path
           d="m 17.064843,8.2797541 a 0.01720096,0.01720096 0 0 0 0.01462,0 l -0.104069,-0.00602 c -0.0052,0 -0.01462,0 -0.01978,0.00688 z"
           style="fill:#999999;stroke-width:6.61458"
           id="path32" />
        <path
           d="m 15.985483,10.585542 c -0.05848,0.006 -0.120407,0.006 -0.182333,0.0069 0.06279,-8.6e-4 0.124698,-8.6e-4 0.182333,-0.0069 z"
           style="fill:#999999;stroke-width:6.61458"
           id="path33" />
        <path
           d="m 15.344748,11.736286 c -0.09633,0.0052 -0.191782,0.0052 -0.287257,0.0052 v 0 c 0.0473,0 0.09976,0 0.147925,0 a 1.1791255,1.1791255 0 0 0 0.139332,-0.0052 z"
           style="fill:#999999;stroke-width:6.61458"
           id="path35" />
        <path
           d="m 15.344748,11.736286 c -0.09633,0.0052 -0.191782,0.0052 -0.287257,0.0052 v 0 c 0.0473,0 0.09976,0 0.147925,0 a 1.1791255,1.1791255 0 0 0 0.139332,-0.0052 z"
           style="opacity:0.35;isolation:isolate;fill:#999999;stroke-width:6.61458"
           id="path36" />
        <path
           d="m 15.761011,10.590703 v 0 c 0.01376,0 0.02838,0 0.04301,0 0.06193,0 0.123852,0 0.182333,-0.0069 -0.07224,0 -0.147925,0 -0.224473,0.0052 z"
           style="fill:#999999;stroke-width:6.61458"
           id="path37" />
        <path
           d="m 15.761011,10.590703 v 0 c 0.01376,0 0.02838,0 0.04301,0 0.06193,0 0.123852,0 0.182333,-0.0069 -0.07224,0 -0.147925,0 -0.224473,0.0052 z"
           style="opacity:0.35;isolation:isolate;fill:#999999;stroke-width:6.61458"
           id="path38" />
        <path
           d="m 15.216601,6.9587205 q 0.417984,-0.5607506 0.832526,-1.093981 c 0.287256,-0.3681012 0.577952,-0.7207208 0.871228,-1.0638783 0.0172,-0.021495 0.03525,-0.042143 0.05161,-0.059347 0.287257,-0.3345576 0.572791,-0.6544958 0.860048,-0.960673 L 17.315987,2.3316595 c -0.06106,0.057615 -0.126431,0.1152501 -0.192648,0.1763098 -0.243393,0.2261931 -0.497968,0.4704463 -0.760281,0.7319013 -0.295857,0.2949967 -0.602034,0.6080534 -0.915091,0.9383119 -0.288115,0.3061772 -0.583112,0.6295542 -0.879829,0.9623934 -0.251993,0.2872569 -0.504848,0.5788127 -0.758561,0.8806889 l -0.02925,0.033542 0.659657,1.970369 c 0.262315,-0.3552003 0.51947,-0.7146994 0.776618,-1.0664549 z"
           style="fill:#e05e2b;fill-opacity:1;stroke-width:6.61458"
           id="path39" />
        <path
           d="m 9.4646007,16.685002 c -0.1720189,0.318217 -0.3440197,0.645035 -0.5203295,0.982173 0,0.0043 -0.00602,0.0086 -0.00688,0.0129 -0.025806,0.04901 -0.051612,0.09289 -0.073106,0.141902 C 8.7455904,18.04731 8.6441135,18.252 8.4050195,18.712986 A 1.8749042,1.8749042 0 0 1 8.9838313,19.641839 1.5205646,1.5205646 0 0 0 8.650132,18.539258 c 1.3399546,0.258014 2.556922,0.086 3.299143,-0.812745 0.06451,-0.08084 0.12901,-0.166842 0.190069,-0.258015 a 1.3107128,1.3107128 0 0 1 -1.317593,0.273496 v 0 a 3.6638039,3.6638039 0 0 0 2.043474,-1.229008 c 0.121273,-0.14448 0.244253,-0.302736 0.370679,-0.479906 a 2.9723253,2.9723253 0 0 1 -2.909542,0.493668 l -0.7637222,-0.02665 c -0.032675,0.06537 -0.066217,0.122985 -0.098039,0.184906 z"
           style="fill:#852677;fill-opacity:1;stroke-width:6.61458"
           id="path40" />
        <path
           d="m 10.062334,15.050911 c 0.225333,-0.396482 0.454965,-0.796404 0.688037,-1.204068 0.223613,-0.387022 0.451526,-0.774043 0.688038,-1.162785 0.236513,-0.388742 0.472166,-0.779204 0.710398,-1.168804 0.238234,-0.389602 0.492807,-0.790384 0.745663,-1.182565 0.252853,-0.3921824 0.504848,-0.7740427 0.755982,-1.1576233 0.09202,-0.1393234 0.1832,-0.2734958 0.279515,-0.411963 0.15824,-0.2339329 0.321659,-0.4678657 0.484208,-0.7009383 0.0069,-0.012901 0.01806,-0.025806 0.02494,-0.039565 L 13.788057,6.0582498 a 0.66051678,0.66051678 0 0 1 -0.05762,0.067949 c -0.266614,0.323377 -0.538389,0.6501968 -0.803285,0.9881951 -0.264896,0.3379984 -0.534951,0.6880374 -0.797264,1.0466784 -0.221032,0.301016 -0.436905,0.602034 -0.653636,0.9099315 -0.04214,0.060194 -0.086,0.1255644 -0.127297,0.1866241 -0.258014,0.3861612 -0.508288,0.7645831 -0.72846,1.1283831 -0.251135,0.411103 -0.476466,0.807585 -0.6785773,1.182565 -0.1315877,0.247694 -0.2580143,0.486788 -0.3724001,0.71814 -0.095468,0.196093 -0.1866241,0.396482 -0.2777947,0.593432 -0.2115718,0.464425 -0.3990622,0.933153 -0.5684924,1.404458 l 0.6630977,1.97811 c 0.1720189,-0.313916 0.3491789,-0.626115 0.5254887,-0.946053 0.047301,-0.08515 0.1006251,-0.172865 0.1505121,-0.265752 z"
           style="fill:#c1203f;fill-opacity:1;stroke-width:6.61458"
           id="path41" />
        <path
           d="m 8.6965781,14.350832 a 14.455684,14.455684 0 0 0 -0.5014073,1.728696 c 0,0.01892 -0.011181,0.04128 -0.013761,0.06019 a 3.758409,3.758409 0 0 0 -0.9340109,-1.075919 5.2239306,5.2239306 0 0 1 0.6923383,2.556922 2.4012535,2.4012535 0 0 1 -1.151604,-0.37412 2.3926532,2.3926532 0 0 0 0.9185314,0.759421 2.9241626,2.9241626 0 0 0 -1.5025033,0.494528 2.9998469,2.9998469 0 0 1 1.7063354,-0.05935 c -0.9082132,1.711509 -1.837065,3.614795 -2.7874178,5.640206 A 0.56075124,0.56075124 0 0 0 5.553102,23.768351 c 0.1720189,-0.366378 1.2986733,-2.774514 2.9697451,-5.910248 0.046435,-0.086 0.09718,-0.17631 0.1444806,-0.270055 0.013761,-0.02665 0.025806,-0.04901 0.039565,-0.07482 q 0.2649002,-0.490234 0.5478559,-1.006263 c 0.044722,-0.07913 0.085999,-0.154815 0.1298754,-0.233933 v -0.0043 L 8.7215266,14.290628 a 0.3440191,0.3440191 0 0 0 -0.024949,0.0602 z"
           style="fill:#682e8c;fill-opacity:1;stroke-width:6.61458"
           id="path42" />
        <path
           d="m 14.566405,8.213534 c -0.03606,0.051612 -0.06708,0.099758 -0.103143,0.1513702 -0.10415,0.1565273 -0.21243,0.3121965 -0.317366,0.4730268 -0.104956,0.1608384 -0.233079,0.3517594 -0.355198,0.5340906 -0.06104,0.091157 -0.122079,0.1823332 -0.184126,0.2777948 -0.184932,0.2829559 -0.37069,0.5753716 -0.562471,0.8755296 -0.235657,0.37068 -0.473027,0.755123 -0.718132,1.157624 -0.232213,0.381002 -0.472161,0.779204 -0.712975,1.187726 -0.228768,0.390462 -0.463559,0.790384 -0.701795,1.204066 -0.211564,0.369821 -0.42486,0.752542 -0.645046,1.144724 -0.01204,0.0172 -0.01978,0.03956 -0.03183,0.05762 -0.214142,0.387882 -0.435174,0.789525 -0.6579384,1.204066 a 0.06708375,0.06708375 0 0 0 -0.013761,0.02665 l 0.7637204,0.02665 c -0.0129,-0.0069 -0.0276,-0.0086 -0.04553,-0.01634 a 5.3959401,5.3959401 0 0 0 3.102193,-1.194606 7.2665441,7.2665441 0 0 0 1.176553,-1.213528 11.599465,11.599465 0 0 0 0.822202,-1.218687 c 0.233925,-0.394761 0.469582,-0.827367 0.700949,-1.298671 a 2.8114964,2.8114964 0 0 1 -0.740494,0.139323 l -0.14444,0.0077 c -0.04815,0 -0.09549,0 -0.147865,0 v 0 a 3.2853828,3.2853828 0 0 0 2.000468,-1.45176 3.0892919,3.0892919 0 0 1 -1.073351,0.295857 c -0.05842,0.006 -0.120467,0.006 -0.182313,0.0069 -0.01376,0 -0.0284,0 -0.04734,0 v 0 a 3.4238505,3.4238505 0 0 0 0.812754,-0.309618 1.4681016,1.4681016 0 0 0 0.146253,-0.086 c 0.07393,-0.04644 0.142829,-0.09805 0.21243,-0.149658 0.04392,-0.03612 0.08602,-0.068795 0.129936,-0.1049357 A 2.3943732,2.3943732 0 0 0 17.32913,9.6523532 c 0.02921,-0.033542 0.05681,-0.062792 0.08078,-0.098046 0.03606,-0.051612 0.07131,-0.098912 0.102337,-0.1470592 0.150484,-0.2158727 0.275223,-0.4128232 0.37756,-0.5882728 0.05077,-0.085999 0.09629,-0.1668417 0.135979,-0.2425328 0.01376,-0.030963 0.03183,-0.057615 0.04654,-0.085999 0.0413,-0.085999 0.08078,-0.1599721 0.109186,-0.2270533 a 2.3849126,2.3849126 0 0 0 0.09206,-0.239094 v 0 a 0.51602874,0.51602874 0 0 1 -0.107575,0.050745 3.6466028,3.6466028 0 0 1 -1.087956,0.2029719 l 0.701795,0.026652 -0.701795,-0.026652 a 0.01720096,0.01720096 0 0 0 -0.01462,0 1.0526985,1.0526985 0 0 0 -0.110194,0 c 0.0052,0 0.01462,0 0.01978,-0.00688 L 14.573475,8.185134 c 0.0043,0.015481 -0.0017,0.024073 -0.0069,0.028384 z"
           style="fill:#bc2045;fill-opacity:1;stroke-width:6.61458"
           id="path43" />
        <path
           d="m 17.924891,3.8290065 c -0.258014,0.2915559 -0.54011,0.6261154 -0.848007,1.0010961 a 0.47130624,0.47130624 0 0 0 -0.0473,0.060193 c -0.267474,0.327678 -0.54871,0.6880374 -0.850588,1.0862393 -0.258014,0.3440197 -0.53323,0.7086801 -0.820485,1.1094626 -0.251135,0.3440197 -0.504848,0.712979 -0.774043,1.1017208 l 2.399532,0.086 A 2.9061017,2.9061017 0 0 0 18.4263,7.4463514 C 18.521768,7.3457266 18.618948,7.2365 18.716996,7.1221141 a 13.932775,13.932775 0 0 0 0.866067,-1.1017208 12.120654,12.120654 0 0 0 0.688036,-1.075919 6.6395693,6.6395693 0 0 0 0.301874,-0.5942922 c 0.06628,-0.1573936 0.121273,-0.3061771 0.172039,-0.451526 a 28.020358,28.020358 0 0 1 -2.820104,-0.069662 z"
           style="fill:#e46929;fill-opacity:1;stroke-width:6.61458"
           id="path44" />
        <path
           d="m 15.20542,11.744027 c -0.04817,0 -0.09547,0 -0.147925,0 v 0 a 1.3528553,1.3528553 0 0 1 0.147925,0 z"
           style="fill:#999999;stroke-width:6.61458"
           id="path45" />
        <path
           d="m 15.20542,11.744027 c -0.04817,0 -0.09547,0 -0.147925,0 v 0 a 1.3528553,1.3528553 0 0 1 0.147925,0 z"
           style="opacity:0.35;isolation:isolate;fill:#999999;stroke-width:6.61458"
           id="path46" />
        <path
           d="m 15.20542,11.744027 c -0.04817,0 -0.09547,0 -0.147925,0 v 0 a 1.3528553,1.3528553 0 0 1 0.147925,0 z"
           style="fill:#999999;stroke-width:6.61458"
           id="path47" />
        <path
           d="m 15.755851,10.589843 c 0.01376,0 0.02838,0 0.0473,0 -0.01376,0 -0.02838,0 -0.0473,0 z"
           style="fill:#999999;stroke-width:6.61458"
           id="path48" />
        <path
           d="m 15.755851,10.589843 c 0.01376,0 0.02838,0 0.0473,0 -0.01376,0 -0.02838,0 -0.0473,0 z"
           style="opacity:0.35;isolation:isolate;fill:#999999;stroke-width:6.61458"
           id="path49" />
        <path
           d="m 15.755851,10.589843 c 0.01376,0 0.02838,0 0.0473,0 -0.01376,0 -0.02838,0 -0.0473,0 z"
           style="fill:#999999;stroke-width:6.61458"
           id="path50" />
      </g>
    </g>
  </g>
  <g
     inkscape:groupmode="layer"
     id="layer10"
     inkscape:label="idea"
     style="display:none"
     sodipodi:insensitive="true">
    <g
       id="g13">
      <g
         id="g12">
        <path
           d="m 12,10.666471 m -10.6664706,0 a 10.666471,10.666471 0 1 0 21.3329416,0 10.666471,10.666471 0 1 0 -21.3329416,0 z"
           fill="#fff59d"
           id="path1"
           style="stroke-width:0.206707" />
        <path
           d="m 18.933206,10.666471 c 0,-4.1065911 -3.519935,-7.3598649 -7.733191,-6.8798737 -3.1999414,0.3733267 -5.7598944,2.9332795 -6.0798885,6.1332208 -0.2666619,2.4532879 0.746653,4.6399149 2.4532881,6.0265559 0.7466531,0.639988 1.2266443,1.546638 1.2266443,2.559953 v 0.159997 h 6.3998821 v -0.05333 c 0,-0.959983 0.426659,-1.919965 1.173312,-2.559953 1.546638,-1.279977 2.559953,-3.199942 2.559953,-5.386568 z"
           fill="#fbc02d"
           id="path2-3"
           style="stroke-width:0.206707" />
        <path
           d="m 15.519936,9.7064886 -1.599971,-1.066647 c -0.159997,-0.1066648 -0.426659,-0.1066648 -0.586656,0 L 12,9.4931592 10.720024,8.6398416 c -0.159997,-0.1066648 -0.426659,-0.1066648 -0.586656,0 L 8.5333971,9.7064886 C 8.4267324,9.8131533 8.3200677,9.9198181 8.3200677,10.079815 c 0,0.159997 0,0.319994 0.1066647,0.426659 l 2.0266296,2.506621 v 5.653229 h 1.066647 v -5.866559 c 0,-0.106665 -0.05333,-0.213329 -0.106665,-0.319994 L 9.6533765,10.293145 10.453362,9.7598211 11.733338,10.613139 c 0.159997,0.106664 0.426659,0.106664 0.586656,0 l 1.279977,-0.8533179 0.799985,0.5333239 -1.759968,2.186626 c -0.05333,0.106665 -0.106664,0.213329 -0.106664,0.319994 v 5.866559 h 1.066647 V 13.013095 L 15.6266,10.506474 c 0.106665,-0.106665 0.159997,-0.266662 0.106665,-0.426659 C 15.679932,9.9198181 15.6266,9.7598211 15.519936,9.7064886 Z"
           fill="#fff59d"
           id="path3-6"
           style="stroke-width:0.206707" />
        <path
           d="m 12,22.399589 m -1.599971,0 a 1.599971,1.599971 0 1 0 3.199942,0 1.599971,1.599971 0 1 0 -3.199942,0 z"
           fill="#5c6bc0"
           id="path4"
           style="stroke-width:0.206707" />
        <path
           d="m 13.066647,22.932912 h -2.133294 c -1.1733118,0 -2.1332941,-0.959982 -2.1332941,-2.133294 v -2.666617 h 6.3998821 v 2.666617 c 0,1.173312 -0.959982,2.133294 -2.133294,2.133294 z"
           fill="#9fa8da"
           id="path5"
           style="stroke-width:0.206707" />
        <path
           d="m 15.199941,20.799618 -6.1865528,0.853318 c 0.1599971,0.373326 0.4799912,0.746653 0.8533178,0.959982 l 5.013241,-0.69332 c 0.21333,-0.319994 0.319994,-0.693321 0.319994,-1.11998 z M 8.8000589,19.572974 v 1.066647 l 6.3998821,-0.90665 v -1.066647 z"
           fill="#5c6bc0"
           id="path6"
           style="stroke-width:0.206707" />
      </g>
    </g>
  </g>
  <g
     inkscape:groupmode="layer"
     id="layer11"
     inkscape:label="approval"
     style="display:none">
    <g
       id="g2"
       transform="matrix(0.1295838,0,0,0.1295838,8.9142856,11.348572)"
       style="display:inline;stroke-width:7.71701"
       sodipodi:insensitive="true">
      <g
         id="g3">
        <path
           d="m 23.8125,-87.577083 20.725695,15.875 25.576388,-3.527779 9.701389,24.253474 24.253478,9.701388 -3.52778,25.576389 15.875,20.7256948 -15.875,20.7256952 3.52778,25.576388 -24.253478,9.701389 -9.701389,24.253473 -25.576388,-3.527778 -20.725695,15.875 -20.7256955,-15.875 -25.5763885,3.527778 -9.701388,-24.253473 -24.253474,-9.701389 3.527779,-25.576388 -15.875,-20.7256952 15.875,-20.7256948 -3.527779,-25.576389 24.253474,-9.701388 9.701388,-24.253474 25.5763885,3.527779 z"
           fill="#8bc34a"
           id="path1-6"
           style="stroke-width:1.59515" />
        <path
           d="M 70.555555,-36.424305 10.583333,23.547917 -14.111112,-1.1465281 -26.458334,11.200696 10.583333,48.242362 82.902778,-24.077083 Z"
           fill="#ccff90"
           id="path2-1"
           style="stroke-width:1.59515" />
      </g>
    </g>
  </g>
  <g
     inkscape:groupmode="layer"
     id="layer12"
     inkscape:label="danger"
     style="display:none"
     sodipodi:insensitive="true">
    <g
       id="g5"
       style="display:inline">
      <g
         id="g4">
        <path
           id="path1-2"
           style="display:inline;fill:#f44336;fill-opacity:1;stroke-width:0.206706"
           d="M 11.999784,0 C 11.441961,0 10.884349,0.21781594 10.448975,0.6531901 L 0.6531901,10.448975 c -0.8707482,0.870748 -0.8707482,2.231388 0,3.102136 l 9.7957849,9.795784 c 0.816326,0.870748 2.231388,0.870748 3.102136,0 l 9.795784,-9.795784 c 0.870749,-0.870748 0.870749,-2.231388 0,-3.102136 L 13.551111,0.6531901 C 13.115737,0.21781594 12.557607,0 11.999784,0 Z m -1.278475,6.0409749 h 2.503207 l -0.272335,8.2175861 h -1.959054 z m 1.305864,9.4691891 c 0.217687,0 0.380888,0.05462 0.544153,0.109038 0.163266,0.05442 0.326789,0.162975 0.435632,0.271818 0.108844,0.108844 0.217397,0.217589 0.271818,0.380855 0.05442,0.163265 0.109037,0.326628 0.109037,0.489893 0,0.163266 -0.05461,0.326627 -0.109037,0.489892 -0.05442,0.163266 -0.162974,0.272011 -0.271818,0.380855 -0.108843,0.108843 -0.272366,0.217913 -0.435632,0.272335 -0.163265,0.05442 -0.326466,0.108521 -0.544153,0.108521 -0.217687,0 -0.380888,-0.0541 -0.544153,-0.108521 -0.163265,-0.05442 -0.272367,-0.163492 -0.435632,-0.272335 -0.108844,-0.108844 -0.217396,-0.217589 -0.271818,-0.380855 -0.05442,-0.163265 -0.109038,-0.272205 -0.109038,-0.489892 0,-0.163265 0.05461,-0.326628 0.109038,-0.489893 0.05442,-0.163266 0.162974,-0.272011 0.271818,-0.380855 0.108843,-0.108843 0.272367,-0.217396 0.435632,-0.271818 0.163265,-0.05442 0.326466,-0.109038 0.544153,-0.109038 z" />
      </g>
    </g>
  </g>
  <g
     inkscape:groupmode="layer"
     id="layer13"
     inkscape:label="warning"
     style="display:none"
     sodipodi:insensitive="true">
    <g
       id="g7">
      <path
         d="M 1.5556481,24 C 0.23509787,24 -0.36515224,23.0396 0.23509787,21.879116 L 10.91955,0.87036257 c 0.60025,-1.16048355 1.56065,-1.16048355 2.1609,0 L 23.764902,21.879116 C 24.365152,23.0396 23.764902,24 22.444352,24 Z"
         fill="#ffce31"
         id="path1-5"
         style="stroke-width:0.264583" />
      <path
         d="m 10.3193,8.6335973 1.120467,7.4030847 c 0.12005,0.7203 1.040433,0.7203 1.160483,0 L 13.6807,8.6335973 c 0.200084,-2.8812005 -3.561484,-2.8812005 -3.3614,0"
         id="path2-2"
         style="fill:#231f20;stroke-width:0.264583" />
      <circle
         cx="12"
         cy="19.037931"
         r="1.6807002"
         id="circle2"
         style="fill:#231f20;stroke-width:0.264583" />
    </g>
  </g>
  <g
     inkscape:groupmode="layer"
     id="layer14"
     inkscape:label="code"
     style="display:none"
     sodipodi:insensitive="true">
    <path
       fill-rule="evenodd"
       clip-rule="evenodd"
       d="M 15.804944,4.6063925 10.005186,20.072412 8.1950696,19.393582 13.994774,3.9275894 Z M 21.265866,11.999922 17.116333,7.850287 18.48327,6.4832715 24.000001,11.999922 18.48327,17.516523 17.116333,16.149585 Z M 6.8836539,16.149585 2.7340312,12.000052 6.8836539,7.8503776 5.5166384,6.4833615 4.5270854e-8,12.000052 5.5166384,17.516652 Z"
       id="path1-3" />
  </g>
  <g
     inkscape:groupmode="layer"
     id="layer36"
     inkscape:label="database"
     style="display:none"
     sodipodi:insensitive="true">
    <path
       d="m 6.9739159,3.2590291 c -1.2953895,0.647695 -1.67159,1.3359479 -1.67159,1.7642265 0,0.4282795 0.3762005,1.1165325 1.67159,1.7642272 C 8.2025228,7.4017794 9.9778984,7.8139536 12,7.8139536 c 2.022103,0 3.797433,-0.4121742 5.026083,-1.0264708 1.29533,-0.6476947 1.671591,-1.3359477 1.671591,-1.7642272 0,-0.4282786 -0.376261,-1.1165315 -1.671591,-1.7642264 C 15.797433,2.6447335 14.022103,2.2325585 12,2.2325585 c -2.0221016,0 -3.7974772,0.412175 -5.0260841,1.0264706 z M 18.697674,8.4069812 C 18.479628,8.5438518 18.253843,8.669678 18.024483,8.7843427 16.42508,9.5840743 14.293433,10.046512 12,10.046512 9.7065674,10.046512 7.5749656,9.5840743 5.9754865,8.7843427 5.7461731,8.6696779 5.5204312,8.5438518 5.3023259,8.4069812 v 1.4534847 c 0,0.5067901 0.4132759,1.2363901 1.6903289,1.9054131 C 8.2168408,12.40707 9.9853405,12.83721 12,12.83721 c 2.014661,0 3.783145,-0.43014 5.007331,-1.071331 1.277023,-0.669023 1.690344,-1.398623 1.690344,-1.9054131 z m 2.232558,-3.3837256 v 4.8372103 c 0,0.062505 -0.0017,0.1245767 -0.0051,0.1860461 h 0.0051 v 4.27907 c 0,0.06252 -0.0017,0.124576 -0.0051,0.186047 h 0.0051 v 4.279069 c 0,1.7536 -1.335963,3.070661 -2.886996,3.883014 C 16.439367,23.513898 14.300873,24 11.999999,24 9.6991253,24 7.5606476,23.513898 5.9567328,22.673712 4.4057009,21.861359 3.0697679,20.544298 3.0697679,18.790698 v -4.279069 h 0.00507 c -0.00338,-0.06147 -0.00507,-0.123535 -0.00507,-0.186047 v -4.27907 h 0.00507 c -0.00338,-0.06147 -0.00507,-0.1235353 -0.00507,-0.1860462 V 5.0232555 c 0,-1.7294729 1.3730084,-2.994723 2.9057186,-3.7610858 C 7.5749656,0.46243761 9.7065674,2.5537167e-7 11.999999,2.5537167e-7 c 2.293433,0 4.42508,0.46243735462833 6.024484,1.26216944462833 1.532726,0.7663628 2.905749,2.0316129 2.905749,3.7610859 z M 5.3023259,17.825786 v 0.964912 c 0,0.506791 0.4132759,1.236391 1.6903289,1.905414 1.224186,0.641191 2.9926857,1.07133 5.0073452,1.07133 2.014661,0 3.783145,-0.430139 5.007331,-1.07133 1.277023,-0.669023 1.690344,-1.398623 1.690344,-1.905414 v -0.964912 c -0.211349,0.137972 -0.430736,0.265675 -0.654438,0.38281 -1.603869,0.840185 -3.742362,1.326288 -6.043237,1.326288 -2.3008747,0 -4.4393524,-0.486103 -6.0432672,-1.326288 C 5.7330012,18.091461 5.5137486,17.963758 5.3023259,17.825786 Z M 18.043237,13.743479 c 0.223702,-0.117134 0.443089,-0.244837 0.654438,-0.382809 v 0.964912 c 0,0.506791 -0.413321,1.23639 -1.690344,1.905414 -1.224186,0.641191 -2.99267,1.071331 -5.007331,1.071331 -2.0146595,0 -3.7831592,-0.43014 -5.0073452,-1.071331 C 5.7156018,15.561972 5.3023259,14.832373 5.3023259,14.325582 V 13.36067 c 0.2114227,0.137972 0.4306753,0.265675 0.6544069,0.382809 1.6039148,0.840187 3.7423925,1.326289 6.0432672,1.326289 2.300875,0 4.439368,-0.486102 6.043237,-1.326289 z"
       id="path1-11"
       fill-rule="evenodd"
       style="stroke-width:1" />
  </g>
  <g
     inkscape:groupmode="layer"
     id="layer37"
     inkscape:label="layer"
     style="display:none"
     sodipodi:insensitive="true">
    <path
       d="M 24,8.1002755 20.110432,10.025287 24,11.950324 20.010119,13.92499 24,15.899658 11.999947,21.838799 8.9170067e-8,15.899658 3.9898412,13.92499 8.9170067e-8,11.950324 3.8895945,10.025287 8.9170067e-8,8.1002755 11.999947,2.1612008 Z m -17.7842742,6.9264475 -1.7639699,0.872935 7.5481911,3.735807 7.548231,-3.735807 -1.763904,-0.872935 -5.784327,2.862741 z m 5.7842212,-0.987333 5.884509,-2.912371 1.663722,0.823305 -7.548231,3.735806 -7.5481911,-3.735806 1.6637093,-0.823305 z m 0,-9.6749083 -7.5481911,3.7357938 7.5481911,3.7357805 7.548231,-3.7357805 z"
       id="path1-81"
       fill-rule="evenodd"
       style="stroke-width:1" />
  </g>
  <g
     inkscape:groupmode="layer"
     id="layer38"
     inkscape:label="image"
     style="display:none"
     sodipodi:insensitive="true">
    <path
       d="M 3.9468831e-7,-1.54513e-8 H 22.909091 L 23.999999,1.0909096 V 24 H 1.0909094 L 3.9468831e-7,22.909091 Z M 2.1818184,2.1818186 V 13.333237 l 3.8677675,-3.867782 7.9338331,7.933963 4.958689,-4.95869 2.876073,2.875927 V 2.1818186 Z M 21.818181,18.402328 18.942108,15.526255 13.983419,20.484946 6.0495859,12.550982 2.1818184,16.418764 v 5.399418 H 21.818181 Z M 15.966982,6.1487567 c -1.040728,0 -1.884364,0.8436365 -1.884364,1.8843056 0,1.040669 0.843636,1.88432 1.884364,1.88432 1.040582,0 1.884217,-0.843651 1.884217,-1.88432 0,-1.0406691 -0.843635,-1.8843056 -1.884217,-1.8843056 z M 11.9008,8.0330623 c 0,-2.2456582 1.820508,-4.0661236 4.066182,-4.0661236 2.245673,0 4.066035,1.8204654 4.066035,4.0661236 0,2.2456287 -1.820362,4.0661387 -4.066035,4.0661387 -2.245674,0 -4.066182,-1.82051 -4.066182,-4.0661387 z"
       id="path1-44" />
  </g>
  <g
     inkscape:groupmode="layer"
     id="layer39"
     inkscape:label="layout_grid"
     style="display:none"
     sodipodi:insensitive="true">
    <path
       d="M -2.9730738e-7,1.090909 1.0909082,-4.9467079e-7 H 9.8181818 L 10.909092,1.090909 V 9.8181816 L 9.8181818,10.909091 H 1.0909082 L -2.9730738e-7,9.8181816 Z M 2.1818176,2.1818174 V 8.7272722 H 8.7272723 V 2.1818174 Z M 13.090909,1.090909 14.181819,-4.9467079e-7 h 8.727273 L 24,1.090909 v 8.7272726 l -1.090908,1.0909094 h -8.727273 l -1.09091,-1.0909094 z m 2.181818,1.0909084 v 6.5454548 h 6.545455 V 2.1818174 Z M -2.9730738e-7,14.181818 1.0909082,13.090908 h 8.7272736 l 1.0909102,1.09091 v 8.727273 L 9.8181818,24 H 1.0909082 L -2.9730738e-7,22.909091 Z M 2.1818176,15.272726 v 6.545455 h 6.5454547 v -6.545455 z m 10.9090914,-1.090908 1.09091,-1.09091 h 8.727273 L 24,14.181818 v 8.727273 L 22.909092,24 h -8.727273 l -1.09091,-1.090909 z m 2.181818,1.090908 v 6.545455 h 6.545455 v -6.545455 z"
       id="path1-17" />
  </g>
  <g
     inkscape:groupmode="layer"
     id="layer40"
     inkscape:label="like"
     style="display:none"
     sodipodi:insensitive="true">
    <path
       d="m 16.579663,4.3613402 c 0.695696,-2.0871698 -0.857779,-4.24252503 -3.057925,-4.24252503 -1.040875,0 -2.017884,0.50271171 -2.622865,1.34976933 L 5.6097034,8.8733726 H 1.2506509 L 0,10.124023 v 12.506511 l 1.2506509,1.25065 H 19.532867 L 23.3742,16.198518 C 24.51496,13.917164 24.067728,11.161896 22.264289,9.3582908 21.152878,8.24703 19.64576,7.6227212 18.074108,7.6227212 H 15.49243 Z M 7.5039566,10.524898 12.934266,2.9224413 c 0.13557,-0.1897156 0.354351,-0.3023241 0.587472,-0.3023241 0.492757,0 0.840771,0.4827681 0.684857,0.9502281 l -2.18447,6.5536777 h 6.051983 c 0.908306,0 1.779259,0.360854 2.421427,1.003022 1.042376,1.042209 1.300677,2.634538 0.641501,3.952892 l -3.149973,6.299945 H 7.5039566 Z M 5.0026542,21.379882 H 2.5013019 V 11.374675 h 2.5013523 z"
       id="path1-178" />
  </g>
  <g
     inkscape:groupmode="layer"
     id="layer41"
     inkscape:label="save"
     style="display:none"
     sodipodi:insensitive="true">
    <path
       d="M 19.394037,2.26772e-8 H 1.3329753e-7 V 24.000001 H 4.3636368 6.5454546 17.454546 19.636365 24.000001 V 4.6059782 Z M 17.454546,21.818183 H 6.5454546 V 14.181818 H 17.454546 Z m 2.181819,-9.818182 v 9.818182 h 2.181818 V 5.5097167 L 18.545455,2.2369892 V 8.727273 H 5.4545457 V 2.1818182 H 2.1818189 V 21.818183 H 4.3636368 V 12.000001 Z M 16.363637,2.1818182 H 7.6363647 v 4.3636365 h 8.7272723 z m -1.090909,1.0909092 h -2.181819 v 2.1818183 h 2.181819 z"
       id="path1-85"
       fill-rule="evenodd" />
  </g>
  <g
     inkscape:groupmode="layer"
     id="layer42"
     inkscape:label="folder"
     style="display:none"
     sodipodi:insensitive="true">
    <path
       d="M 8.4142136,1.9999994 H -7.213248e-8 V 21.000002 L 0.99999998,22.000001 H 23.000002 l 0.999999,-0.999999 V 3.9999993 H 10.414267 L 9.7072005,3.292906 v 2.77e-5 z m 1.1716543,4.000001 H 9.5857344 L 7.5857874,3.9999993 H 2.0000002 V 20 H 22.000001 V 9.000014 H 12.585868 Z M 22.000001,7.0000129 V 6.0000004 h -9.585734 l 1.000001,1.0000125 z"
       id="path1-88"
       fill-rule="evenodd" />
  </g>
  <g
     inkscape:groupmode="layer"
     id="layer43"
     inkscape:label="eyes"
     style="display:none"
     sodipodi:insensitive="true">
    <path
       d="m 11.994695,3.8173549 c -3.363053,0 -6.3074332,2.0137901 -8.3306429,3.877141 -1.0278488,0.9466406 -1.8568532,1.8904687 -2.4288379,2.5969641 -0.28654997,0.353854 -0.51003916,0.650004 -0.66316966,0.859601 -0.0766018,0.104859 -0.13569841,0.18814 -0.17636923,0.246328 -0.0203417,0.02909 -0.0360889,0.05189 -0.0471201,0.06801 l -0.0130074,0.01903 -0.00383,0.0057 L -3.4578003e-7,12.016008 0.33048134,12.508057 l 0.001237,0.0018 0.00383,0.0057 0.0130066,0.01903 c 0.011032,0.01612 0.0267784,0.03891 0.0471201,0.06801 0.0406708,0.05819 0.0997677,0.141469 0.17636924,0.246328 0.15313049,0.209597 0.3766196,0.505748 0.66316962,0.859602 0.5719847,0.706494 1.4009892,1.650347 2.4288379,2.596988 2.023209,1.863338 4.9675893,3.877117 8.3306422,3.877117 3.363005,0 6.3073,-2.013779 8.330534,-3.877117 1.02786,-0.946641 1.856914,-1.890494 2.42885,-2.596988 0.286574,-0.353854 0.509991,-0.650005 0.663217,-0.859602 0.07649,-0.104859 0.135651,-0.18814 0.176261,-0.246327 0.02036,-0.02909 0.03613,-0.05189 0.04716,-0.06801 l 0.01297,-0.01903 0.0039,-0.0057 0.0017,-0.0025 L 24,11.999979 l -0.341246,-0.508051 -0.0013,-0.0018 -0.0039,-0.0057 -0.01297,-0.01903 c -0.011,-0.01612 -0.02676,-0.03891 -0.04713,-0.06801 -0.04055,-0.05817 -0.09971,-0.141445 -0.176203,-0.246304 -0.153182,-0.20962 -0.376598,-0.50577 -0.663172,-0.859624 C 22.182143,9.5849646 21.353089,8.6411365 20.325229,7.6944959 18.301995,5.831145 15.3577,3.8173549 11.994695,3.8173549 Z M 2.6484471,12.564415 C 2.4746357,12.349727 2.3266692,12.15892 2.2066209,11.999995 2.3266692,11.84107 2.4746357,11.650263 2.6484471,11.435575 3.1806459,10.778297 3.9493899,9.9037845 4.8959094,9.0320364 6.8213997,7.2586582 9.3321125,5.6357194 11.994695,5.6357194 c 2.662449,0 5.173247,1.6229388 7.098652,3.396317 0.94652,0.8717481 1.715324,1.7462606 2.247498,2.4035386 0.173837,0.214688 0.32173,0.405495 0.441863,0.56442 -0.120133,0.158925 -0.268026,0.349732 -0.441863,0.56442 -0.532174,0.657279 -1.300978,1.53179 -2.247498,2.403514 -1.925405,1.773391 -4.436203,3.396341 -7.098652,3.396341 -2.6625825,0 -5.1732953,-1.62295 -7.0987856,-3.396341 C 3.9493899,14.096205 3.1806459,13.221694 2.6484471,12.564415 Z M 14.72212,11.999995 c 0,1.506333 -1.221092,2.727546 -2.727546,2.727546 -1.506333,0 -2.7274864,-1.221213 -2.7274864,-2.727546 0,-1.506333 1.2211534,-2.7275467 2.7274864,-2.7275467 1.506454,0 2.727546,1.2212137 2.727546,2.7275467 z m 1.818365,0 c 0,2.510676 -2.035235,4.545911 -4.545911,4.545911 -2.5105798,0 -4.5458505,-2.035235 -4.5458505,-4.545911 0,-2.51064 2.0352707,-4.5459112 4.5458505,-4.5459112 2.510676,0 4.545911,2.0352712 4.545911,4.5459112 z"
       id="path1-64"
       fill-rule="evenodd" />
  </g>
  <g
     inkscape:groupmode="layer"
     id="layer44"
     inkscape:label="location"
     style="display:none"
     sodipodi:insensitive="true">
    <path
       d="m 12.379734,21.324667 c -0.1708,0.125332 -0.33,0.239066 -0.475466,0.341066 C 11.749067,21.562795 11.576934,21.4444 11.390267,21.310934 10.510134,20.6812 9.3686676,19.7568 8.2445072,18.603868 5.9386939,16.238934 4.0000005,13.220133 4.0000005,9.9999998 c 0,-4.41828 3.5817201,-7.9999993 7.9999995,-7.9999993 4.418267,0 8.000001,3.5817193 8.000001,7.9999993 0,3.1856002 -2.024134,6.1957342 -4.414267,8.5857342 -1.159599,1.159733 -2.326534,2.094134 -3.206,2.738933 z M 22,9.9999998 C 22,18 12,24.000001 12,24.000001 11.5,24.000001 2.0000005,18 2.0000005,9.9999998 2.0000005,4.4771475 6.4771471,4.2999999e-8 12,4.2999999e-8 17.5228,4.2999999e-8 22,4.4771475 22,9.9999998 Z m -7.999999,0 C 14.000001,11.104533 13.104534,12 12,12 10.895467,12 9.9999999,11.104533 9.9999999,9.9999998 9.9999999,8.8954275 10.895467,8.0000007 12,8.0000007 c 1.104534,0 2.000001,0.8954268 2.000001,1.9999991 z m 1.999999,0 c 0,2.2092002 -1.7908,4.0000012 -4,4.0000012 -2.2091996,0 -3.9999994,-1.790801 -3.9999994,-4.0000012 0,-2.2091325 1.7907998,-3.9999996 3.9999994,-3.9999996 2.2092,0 4,1.7908671 4,3.9999996 z"
       id="path1-60"
       fill-rule="evenodd" />
  </g>
  <g
     inkscape:groupmode="layer"
     id="layer45"
     inkscape:label="lock"
     style="display:none"
     sodipodi:insensitive="true">
    <path
       d="m 8.4000004,5.9999999 c 0,-1.9882239 1.6118406,-3.6 3.5999996,-3.6 1.988161,0 3.600001,1.6117761 3.600001,3.6 V 8.4000006 H 8.4000004 Z M 6.0000003,8.4000006 V 5.9999999 C 6.0000003,2.686288 8.6862883,-4.689653e-8 12,-4.689653e-8 15.31376,-4.689653e-8 18.000001,2.686288 18.000001,5.9999999 v 2.4000007 h 2.4 l 1.2,1.1999992 V 22.800001 l -1.2,1.2 H 3.6000003 l -1.2000001,-1.2 V 9.5999998 L 3.6000003,8.4000006 Z M 4.8000002,21.6 V 10.8 H 19.200001 v 10.8 z"
       id="path1-97"
       fill-rule="evenodd" />
  </g>
  <g
     inkscape:groupmode="layer"
     id="layer46"
     inkscape:label="link"
     style="display:none"
     sodipodi:insensitive="true">
    <path
       id="path1-303"
       d="M 5.6528568,6.3471032 C 2.530864,6.3471032 4.5444745e-8,8.8780469 4.5444745e-8,12.000041 4.5444745e-8,15.121992 2.530864,17.652897 5.6528568,17.652897 H 9.9468946 V 15.599791 H 5.6528568 c -1.9881041,0 -3.5997515,-1.611661 -3.5997515,-3.59975 0,-1.988091 1.6116474,-3.5998326 3.5997515,-3.5998326 H 9.9468946 V 6.3471032 Z m 8.4002482,0 v 2.0531052 h 4.294038 c 1.98809,0 3.599751,1.6117416 3.599751,3.5998326 0,1.988089 -1.611661,3.59975 -3.599751,3.59975 h -4.294038 v 2.053105 h 4.294038 c 3.121952,0 5.652856,-2.530904 5.652856,-5.652856 0,-3.1220067 -2.530904,-5.6529368 -5.652856,-5.6529368 z M 5.8406837,10.973488 v 2.053105 H 18.159317 v -2.053105 z" />
  </g>
  <g
     inkscape:groupmode="layer"
     id="layer47"
     inkscape:label="menu"
     style="display:none"
     sodipodi:insensitive="true">
    <path
       id="path1-05"
       style="stroke-width:8.81944"
       d="m -5.5352188e-7,3.5999995 v 2.4 H 23.999999 v -2.4 z m 0,7.1999995 V 13.2 H 23.999999 v -2.400001 z m 0,7.2 v 2.4 H 23.999999 v -2.4 z" />
  </g>
  <g
     inkscape:groupmode="layer"
     id="layer48"
     inkscape:label="more_horizontal"
     style="display:none"
     sodipodi:insensitive="true">
    <path
       id="circle1"
       style="stroke-width:8.81944"
       d="M 2.4000003,9.5999999 A 2.4,2.4 0 0 0 -1.75335e-8,11.999999 2.4,2.4 0 0 0 2.4000003,14.4 2.4,2.4 0 0 0 4.8000001,11.999999 2.4,2.4 0 0 0 2.4000003,9.5999999 Z m 9.5999997,0 A 2.4,2.4 0 0 0 9.6000001,11.999999 2.4,2.4 0 0 0 12,14.4 2.4,2.4 0 0 0 14.4,11.999999 2.4,2.4 0 0 0 12,9.5999999 Z m 9.6,0 A 2.4,2.4 0 0 0 19.2,11.999999 2.4,2.4 0 0 0 21.6,14.4 2.4,2.4 0 0 0 24,11.999999 2.4,2.4 0 0 0 21.6,9.5999999 Z" />
  </g>
  <g
     inkscape:groupmode="layer"
     id="layer49"
     inkscape:label="more_vertical"
     style="display:none"
     sodipodi:insensitive="true">
    <path
       id="circle1-4"
       style="display:inline;stroke-width:8.81944"
       d="M 14.4,2.4 A 2.4,2.4 0 0 0 12.000001,0 2.4,2.4 0 0 0 9.6,2.4 2.4,2.4 0 0 0 12.000001,4.8 2.4,2.4 0 0 0 14.4,2.4 Z m 0,9.6 A 2.4,2.4 0 0 0 12.000001,9.6 2.4,2.4 0 0 0 9.6,12 2.4,2.4 0 0 0 12.000001,14.4 2.4,2.4 0 0 0 14.4,12 Z m 0,9.6 A 2.4,2.4 0 0 0 12.000001,19.2 2.4,2.4 0 0 0 9.6,21.6 2.4,2.4 0 0 0 12.000001,24 2.4,2.4 0 0 0 14.4,21.6 Z" />
  </g>
  <g
     inkscape:groupmode="layer"
     id="layer50"
     inkscape:label="refresh"
     style="display:none"
     sodipodi:insensitive="true">
    <path
       id="path1-89"
       style="stroke-width:8.81947"
       d="M 11.784796,-3.426024e-7 C 5.2535633,-3.426024e-7 4.7452253e-5,5.3954731 4.7452253e-5,11.999999 H 2.4000465 c 0,-5.3248313 4.2243332,-9.599998 9.3847495,-9.599998 3.463199,0 6.502238,1.9219835 8.129436,4.8000004 h -3.114281 v 2.399999 h 7.2 V 2.400001 H 21.599952 V 5.3568747 C 19.492272,2.1345872 15.889755,-3.426024e-7 11.784796,-3.426024e-7 Z M 21.599952,11.999999 c 0,5.3248 -4.224244,9.600001 -9.384562,9.600001 -3.4632473,0 -6.5024097,-1.921921 -8.1296236,-4.8 H 7.2000468 V 14.400001 H 4.7452253e-5 V 21.6 H 2.4000465 v -2.956968 c 2.1076954,3.222398 5.710209,5.356967 9.8153435,5.356967 6.531038,0 11.784561,-5.395519 11.784561,-12 z" />
  </g>
  <g
     inkscape:groupmode="layer"
     id="layer51"
     inkscape:label="puzzle"
     style="display:none"
     sodipodi:insensitive="true">
    <path
       id="path1-051"
       d="M 13.983408,4.792761e-7 C 11.564645,4.792761e-7 9.5423871,1.6978992 9.0435506,3.9669033 H 3.9669033 V 9.0435511 C 1.6978998,9.5423874 2.951234e-8,11.564645 2.951234e-8,13.983409 2.951234e-8,16.402318 1.6978998,18.424587 3.9669033,18.92335 v 5.076649 H 23.999999 v -7.140511 h -1.09091 c -1.588363,0 -2.876079,-1.28757 -2.876079,-2.876079 0,-1.588364 1.287716,-2.875909 2.876079,-2.875909 h 1.09091 V 3.9669033 H 18.923351 C 18.424588,1.6978992 16.402318,4.792761e-7 13.983408,4.792761e-7 Z m 0,2.1818175207239 c 1.58851,0 2.87608,1.2876163 2.87608,2.8759941 v 1.0909087 h 4.958692 v 2.8948303 c -2.268945,0.4988363 -3.966988,2.5210939 -3.966988,4.9398579 0,2.418909 1.698043,4.441178 3.966988,4.939941 v 2.89483 H 6.1487213 v -4.958692 h -1.090909 c -1.5883781,0 -2.8759941,-1.28757 -2.8759941,-2.876079 0,-1.588364 1.287616,-2.875909 2.8759941,-2.875909 h 1.090909 V 6.1487208 H 11.1075 V 5.0578121 c 0,-1.5883924 1.287545,-2.8759941 2.875908,-2.8759941 z" />
  </g>
  <g
     inkscape:groupmode="layer"
     id="layer52"
     inkscape:label="printer"
     style="display:none"
     sodipodi:insensitive="true">
    <path
       id="path1-06"
       d="M 4.6956518,3.2130439e-7 V 5.2173914 H 1.5652174 L 0.52173879,6.2608697 V 17.73913 L 1.5652174,18.782609 H 4.6956518 V 24 H 19.304347 v -5.217391 h 3.130435 L 23.478261,17.73913 V 6.2608697 L 22.434782,5.2173914 H 19.304347 V 3.2130439e-7 Z M 6.7826083,2.0869567 H 17.217391 V 5.2173914 H 6.7826083 Z M 2.6086953,7.3043478 H 21.391304 V 16.695652 H 19.304347 V 13.565217 H 4.6956518 v 3.130435 H 2.6086953 Z M 16.173913,9.3913045 v 2.0869565 h 2.086956 V 9.3913045 Z M 6.7826083,15.652174 H 17.217391 v 1.043478 2.086957 3.130434 H 6.7826083 v -3.130434 -2.086957 z"
       style="stroke-width:1" />
  </g>
  <g
     inkscape:groupmode="layer"
     id="layer53"
     inkscape:label="qrcode"
     style="display:none"
     sodipodi:insensitive="true">
    <path
       id="path1-86"
       d="M 2.0902262e-7,3.8686496e-7 V 10.909091 H 10.909091 V 3.8686496e-7 Z m 13.09090879097738,0 V 10.909091 h 10.90909 V 3.8686496e-7 Z M 2.1818182,2.1818184 h 6.545454 v 6.5454544 h -6.545454 z m 13.0909078,0 h 6.545455 V 8.7272728 H 15.272726 Z M 4.3636362,4.3636364 v 2.181818 h 2.1818183 v -2.181818 z m 13.0909078,0 v 2.181818 h 2.181819 V 4.3636364 Z M 2.0902262e-7,13.09091 V 23.999999 H 10.909091 V 13.09091 Z M 13.090909,13.09091 v 6.545453 h 2.181817 V 13.09091 Z m 4.363635,0 v 8.727271 h -4.363635 v 2.181818 h 6.545454 v -5.454545 h 4.363636 V 16.363636 13.09091 h -2.181818 v 3.272726 H 19.636363 V 13.09091 Z M 2.1818182,15.272728 h 6.545454 v 6.545453 h -6.545454 z m 2.181818,2.181817 v 2.181818 h 2.1818183 v -2.181818 z m 17.4545448,3.272727 v 3.272727 h 2.181818 v -3.272727 z"
       style="stroke-width:1" />
  </g>
  <g
     inkscape:groupmode="layer"
     id="layer54"
     inkscape:label="chart"
     style="display:none"
     sodipodi:insensitive="true">
    <path
       id="path1-24"
       d="M 12.52174,1.1625e-8 V 11.478261 H 24 V 10.434783 C 24,4.6718053 19.328139,1.1624999e-8 13.565218,1.1624999e-8 Z M 14.608696,2.1515219 c 3.776,0.470873 6.768826,3.4637268 7.239783,7.2397825 H 14.608696 Z M 10.434783,3.1304346 C 4.6718052,3.1304346 1.2471586e-7,7.8022401 1.2471586e-7,13.565218 1.2471586e-7,19.328139 4.6718052,24 10.434783,24 16.197705,24 20.869565,19.328139 20.869565,13.565218 V 12.521739 H 11.478261 V 3.1304346 Z m -1.0434786,2.151522 v 9.3267394 h 9.3267396 c -0.513531,4.117843 -4.026287,7.304348 -8.283261,7.304348 -4.6103795,0 -8.3478265,-3.737461 -8.3478265,-8.347826 0,-4.2569745 3.1864627,-7.7697728 7.3043479,-8.2832614 z"
       style="stroke-width:1" />
  </g>
  <g
     inkscape:groupmode="layer"
     id="layer55"
     inkscape:label="people"
     style="display:none"
     sodipodi:insensitive="true">
    <path
       id="path1-908"
       d="m 8.0000006,0.49999995 c -2.7614268,0 -5.0000003,2.23857345 -5.0000003,5.00000025 0,1.8428132 0.9969641,3.4528001 2.4809375,4.3199997 C 6.2206712,10.252267 7.0813871,10.5 8.0000004,10.5 c 0.9186135,0 1.7793288,-0.247733 2.5190636,-0.6800001 0.577466,-0.3374665 1.08107,-0.7872106 1.480937,-1.3195307 0.399866,0.5321867 0.903471,0.9820642 1.480937,1.3195307 C 14.220672,10.252267 15.081334,10.5 16.000001,10.5 c 0.918666,0 1.779329,-0.247733 2.519062,-0.6800001 1.484001,-0.8671996 2.480938,-2.4771865 2.480938,-4.3199997 0,-2.7614268 -2.238534,-5.00000025 -5,-5.00000025 -1.6356,0 -3.087734,0.78537125 -4,1.99953135 C 11.087734,1.2853712 9.6356012,0.49999995 8.0000006,0.49999995 Z m 0,2.00000005 C 9.656801,2.5 11,3.843147 11,5.5000002 11,7.1568536 9.656801,8.5000004 8.0000006,8.5000004 6.3431469,8.5000004 5.0000002,7.1568536 5.0000002,5.5000002 5.0000002,3.843147 6.3431469,2.5 8.0000006,2.5 Z m 8.0000004,0 c 1.6568,0 3,1.343147 3,3.0000002 0,1.6568534 -1.3432,3.0000002 -3,3.0000002 -1.656801,0 -3,-1.3431468 -3,-3.0000002 0,-1.6568532 1.343199,-3.0000002 3,-3.0000002 z m -8.0000004,9.000001 c -0.9442267,0 -1.850237,0.163584 -2.6912503,0.463984 C 2.2144169,13.069052 -5.1298662e-8,16.026001 -5.1298662e-8,19.500001 v 4 H 16.000001 v -4 c 0,-2.161999 -0.857572,-4.123626 -2.251172,-5.56336 0.6952,-0.281599 1.455039,-0.43664 2.251172,-0.43664 3.313733,0 6,2.686267 6,6 v 2.000001 H 17 v 1.999999 h 7.000001 v -4 c 0,-3.474 -2.214429,-6.430949 -5.308828,-7.536016 -0.840934,-0.3004 -1.746906,-0.463984 -2.691172,-0.463984 -0.944267,0 -1.850238,0.163584 -2.691173,0.463984 -0.456932,0.163067 -0.89456,0.36665 -1.308827,0.60625 -0.414268,-0.2396 -0.851895,-0.443183 -1.308828,-0.60625 -0.8409334,-0.3004 -1.7469457,-0.463984 -2.6911724,-0.463984 z m 0,2 c 3.3137334,0 5.9999994,2.686267 5.9999994,6 v 2.000001 H 2 v -2.000001 c 0,-3.313733 2.6862934,-6 6.0000006,-6 z" />
  </g>
  <g
     inkscape:groupmode="layer"
     id="layer56"
     inkscape:label="notification"
     style="display:none"
     sodipodi:insensitive="true">
    <path
       id="path1-03"
       d="M 9.9130921,-5.2004965e-7 V 1.3040211 C 6.2443613,2.2393401 3.5362167,5.583732 3.5362167,9.5560591 v 6.5355169 c 0,0.561531 -0.1891079,1.367101 -0.4173098,2.106441 -0.1091895,0.353807 -0.218766,0.665853 -0.3009782,0.889157 -0.040988,0.111303 -0.074904,0.199771 -0.098152,0.259321 l -0.026332,0.06693 -0.00636,0.01574 -0.00123,0.0032 0.9662771,1.437216 H 20.347867 l 0.966277,-1.437228 -0.0013,-0.0032 -0.0063,-0.01574 -0.02641,-0.06693 c -0.02322,-0.05955 -0.05709,-0.148016 -0.09814,-0.259321 -0.08222,-0.223305 -0.19168,-0.535349 -0.300897,-0.889158 -0.228174,-0.739339 -0.417391,-1.54491 -0.417391,-2.10644 V 9.5560591 c 0,-3.9722432 -2.708063,-7.3165544 -6.376794,-8.2519562 V -5.2004965e-7 Z M 12.000049,3.1304346 c 3.51527,0 6.376793,2.8704105 6.376793,6.4256245 v 6.5355169 c 0,0.884868 0.267246,1.930128 0.500706,2.691032 H 5.1225482 C 5.3559396,18.021704 5.6231733,16.976444 5.6231733,16.091576 V 9.5560591 c 0,-3.555214 2.8614524,-6.4256245 6.3768757,-6.4256245 z M 7.8262168,21.913043 v 2.086956 h 8.3477442 v -2.086956 z" />
  </g>
  <g
     inkscape:groupmode="layer"
     id="layer57"
     inkscape:label="nodes"
     style="display:none"
     sodipodi:insensitive="true">
    <path
       id="path1-19"
       d="m 18.999997,2.3333979e-6 c -2.761466,0 -4.999999,2.2385727666021 -4.999999,4.9999989666021 0,0.3364531 0.03323,0.665142 0.09656,0.9829686 L 9.0343736,9.0457817 C 8.124494,7.8053153 6.656293,7.000001 5,7.000001 2.2385736,7.000001 9.174907e-7,9.2385737 9.174907e-7,12 9.174907e-7,14.761466 2.2385736,16.999998 5,16.999998 c 1.8003056,0 3.3784135,-0.951462 4.2588268,-2.379062 l 4.8566392,3.305859 c -0.0756,0.345734 -0.115465,0.704803 -0.115465,1.073203 0,2.761466 2.238533,4.999999 4.999999,4.999999 2.761466,0 4.999999,-2.238533 4.999999,-4.999999 0,-2.761466 -2.238533,-4.999999 -4.999999,-4.999999 -1.668266,0 -3.145716,0.817079 -4.053982,2.072812 L 9.9547673,12.675312 C 9.9845068,12.454511 10.000011,12.229065 10.000011,12 c 0,-0.386534 -0.043856,-0.762807 -0.1267964,-1.124141 L 14.886251,7.8428131 C 15.788651,9.1462529 17.294667,10 18.999999,10 21.761466,10 23.999998,7.7614273 23.999998,5.0000013 23.999998,2.2385751 21.761466,2.3333979e-6 18.999999,2.3333979e-6 Z m 0,1.9999995666021 c 1.6568,0 2.999999,1.3431464 2.999999,2.9999994 0,1.656853 -1.343199,2.9999993 -2.999999,2.9999993 -1.656799,0 -2.999999,-1.3431463 -2.999999,-2.9999993 0,-1.656853 1.3432,-2.9999994 2.999999,-2.9999994 z M 5,9.0000003 C 6.656853,9.0000003 7.9999991,10.343199 7.9999991,12 7.9999991,13.6568 6.656853,14.999999 5,14.999999 3.3431472,14.999999 2.0000002,13.6568 2.0000002,12 2.0000002,10.343199 3.3431472,9.0000003 5,9.0000003 Z m 13.999997,6.9999987 c 1.6568,0 2.999999,1.343199 2.999999,2.999999 0,1.6568 -1.343199,2.999999 -2.999999,2.999999 -1.656799,0 -2.999999,-1.343199 -2.999999,-2.999999 0,-1.6568 1.3432,-2.999999 2.999999,-2.999999 z"
       style="stroke-width:1" />
  </g>
  <g
     inkscape:groupmode="layer"
     id="layer58"
     inkscape:label="config"
     style="display:none"
     sodipodi:insensitive="true">
    <path
       id="path1-80"
       d="M 10.2,0 9.2421873,0.71265656 8.4367189,3.3975 5.9686716,2.0685157 4.7875001,2.241875 2.2418751,4.7874999 2.0685157,5.9686717 3.3975003,8.4367187 0.71265656,9.2421874 0,10.2 v 3.6 L 0.71265656,14.757891 3.3975003,15.563359 2.0685936,18.031328 2.241953,19.2125 4.7875001,21.758125 5.9686716,21.931484 8.4367189,20.6025 9.2421873,23.287343 10.2,24 h 3.6 L 14.757891,23.287343 15.563359,20.6025 18.031328,21.931484 19.2125,21.757968 21.758125,19.2125 21.931484,18.031328 20.6025,15.563203 23.287343,14.757891 24,13.8 V 10.2 L 23.287343,9.2421874 20.6025,8.4367187 21.931484,5.96875 21.758125,4.7874999 19.2125,2.241953 18.031328,2.0685936 15.563359,3.3975 14.757891,0.71265656 13.8,0 Z m 0.743984,1.9999997 h 2.112031 l 0.985078,3.2837502 0.459298,0.1757031 c 0.120133,0.045973 0.238691,0.095193 0.355625,0.1475 l 0.449218,0.2010157 3.019141,-1.6257031 1.493359,1.4933593 -1.625703,3.0192187 0.201016,0.4492188 c 0.05227,0.1168934 0.1015,0.2354136 0.1475,0.355547 L 18.716249,9.9589062 22,10.943985 v 2.11203 l -3.283751,0.985078 -0.175702,0.459298 c -0.046,0.120133 -0.09523,0.238668 -0.1475,0.355468 l -0.201016,0.449375 1.625703,3.019141 -1.493359,1.493359 -3.019141,-1.625703 -0.449218,0.201016 c -0.116934,0.05227 -0.235492,0.1015 -0.355625,0.1475 L 14.041093,18.71625 13.056015,22 H 10.943984 L 9.9589057,18.71625 9.4996092,18.540547 c -0.1201329,-0.046 -0.2386667,-0.09523 -0.3555469,-0.1475 L 8.6948434,18.192031 5.6756249,19.817734 4.1822657,18.324375 5.8079685,15.305234 5.6069531,14.856016 C 5.5546465,14.739082 5.5054265,14.620524 5.4594533,14.500391 l -0.1757036,-0.459298 -3.28375,-0.985078 v -2.11203 L 5.2837497,9.9589062 5.4594533,9.4996094 C 5.505411,9.379476 5.5546465,9.2609423 5.6069531,9.1440624 L 5.8079685,8.6948436 4.1821878,5.6756249 5.675547,4.1821873 8.6947656,5.8079687 9.1440623,5.606953 C 9.2609555,5.554646 9.3794763,5.5054265 9.4996092,5.459453 L 9.9589057,5.2837499 Z M 12,6.9999999 c -2.7614272,0 -5.0000002,2.2385734 -5.0000002,5.0000001 0,2.761467 2.238573,5 5.0000002,5 2.761466,0 5,-2.238533 5,-5 C 17,9.2385733 14.761466,6.9999999 12,6.9999999 Z M 12,9 c 1.6568,0 3,1.3432 3,3 0,1.6568 -1.3432,3 -3,3 C 10.3432,15 8.9999996,13.6568 8.9999996,12 8.9999996,10.3432 10.3432,9 12,9 Z" />
  </g>
  <g
     inkscape:groupmode="layer"
     id="layer59"
     inkscape:label="security"
     style="display:none"
     sodipodi:insensitive="true">
    <path
       id="path1-00"
       style="stroke-width:8.81944"
       d="M 12,-1.61032e-8 1.6062393,2.3096871 V 12.497846 c 0,4.001044 2.7136062,8.657589 10.0327387,11.368419 L 12,24 12.36102,23.866265 C 19.680167,21.155435 22.39376,16.49889 22.39376,12.497846 V 2.3096871 Z M 12,2.1294206 l 8.315008,1.847816 v 8.5206094 c 0,2.874915 -1.892912,6.787972 -8.315008,9.282197 C 5.5779033,19.285818 3.6849915,15.372761 3.6849915,12.497846 V 3.9772366 Z" />
  </g>
  <g
     inkscape:groupmode="layer"
     id="layer60"
     inkscape:label="tag"
     style="display:none">
    <path
       id="path1-7"
       d="M 4.3359298,0.04349386 3.0585848,1.3208388 V 24 L 12,18.701413 20.941415,24 V 1.3208388 L 19.66407,0.04349386 Z M 5.6132747,2.598184 H 18.386725 V 19.516719 L 12,15.731885 5.6132747,19.516719 Z"
       style="stroke-width:0.999999" />
  </g>
  <g
     inkscape:groupmode="layer"
     id="layer61"
     inkscape:label="category"
     style="display:none"
     sodipodi:insensitive="true">
    <path
       id="path1-72"
       d="M 1.0909095,-1.4389701e-7 -4.8956132e-7,1.0909091 V 9.8181819 L 1.0909095,10.909091 h 8.727272 L 10.909091,9.8181819 V 1.0909091 L 9.8181815,-1.4389701e-7 Z m 13.0909095,0 L 13.090909,1.0909091 v 8.7272728 l 1.09091,1.0909091 h 8.727272 L 24,9.8181819 V 1.0909091 L 22.90909,-1.4389701e-7 Z M 2.1818185,2.1818182 h 6.545454 v 6.5454546 h -6.545454 z m 13.0909085,0 h 6.545455 V 8.7272728 H 15.272727 Z M 1.0909095,13.090909 -4.8956132e-7,14.181818 v 8.727273 L 1.0909095,24 h 8.727272 L 10.909091,22.909091 V 14.181818 L 9.8181815,13.090909 Z m 16.3636355,0 v 4.363637 h -4.363636 v 2.181818 h 4.363636 V 24 h 2.181818 V 19.636364 H 24 V 17.454546 H 19.636363 V 13.090909 Z M 2.1818185,15.272727 h 6.545454 v 6.545455 h -6.545454 z" />
  </g>
  <g
     inkscape:groupmode="layer"
     id="layer16"
     inkscape:label="package"
     style="display:none"
     sodipodi:insensitive="true">
    <path
       fill-rule="evenodd"
       clip-rule="evenodd"
       d="M 12,-9.356073e-8 23.364177,5.6152397 V 18.384718 L 12,23.999999 0.63582212,18.384718 V 5.6152397 Z M 2.7020362,7.9199227 V 17.10091 l 8.2648568,4.083803 V 12.003698 Z M 13.033107,12.003698 v 9.181015 L 21.297963,17.10091 V 7.9199227 L 18.198642,9.4513728 V 13.54964 l -2.066214,1.033106 v -4.110388 z m 6.965896,-5.7465958 -2.692001,1.3301186 c -0.05895,-0.048664 -0.124387,-0.091476 -0.19574,-0.1271555 L 9.3848611,3.5968792 12,2.3046826 Z M 7.0610865,4.7450881 15.012678,8.7208974 12,10.209535 4.0010513,6.2571022 Z"
       id="path1-31" />
  </g>
  <g
     inkscape:groupmode="layer"
     id="layer17"
     inkscape:label="bug"
     style="display:none"
     sodipodi:insensitive="true">
    <path
       d="M 12,2.3999996 C 8.7407839,2.3999996 5.9999998,5.1916158 5.9999998,8.76 V 10.8 H 18 V 8.76 C 18,5.1916158 15.2592,2.3999996 12,2.3999996 Z M 5.9999998,15.240001 V 13.2 H 10.8 v 8.271681 C 8.0950879,20.885921 5.9999998,18.35984 5.9999998,15.240001 Z M 13.2,21.471681 C 15.90496,20.885921 18,18.35984 18,15.24 V 13.2 H 13.2 Z M 0.35156758,5.6484638 3.5999998,8.8969599 V 10.8 H -3.2404339e-7 v 2.4 H 3.5999998 v 1.90288 L 0.35137567,18.35152 2.0484318,20.04864 4.0440637,18.05296 C 5.161488,21.48624 8.2687522,24 12,24 c 3.7312,0 6.8384,-2.51376 7.95584,-5.94688 l 1.99552,1.99552 1.69712,-1.69712 -3.248479,-3.24848 V 13.2 H 24 V 10.8 H 20.400001 V 8.89712 l 3.24864,-3.2486562 -1.69712,-1.69704 L 19.956,5.94704 C 18.83856,2.5137598 15.7312,-5.3742943e-7 12,-5.3742943e-7 8.2687998,-5.3742943e-7 5.1615679,2.5136957 4.0441118,5.9469119 L 2.0486237,3.9514238 Z"
       id="path1-4"
       fill-rule="evenodd" />
  </g>
  <g
     inkscape:groupmode="layer"
     id="layer18"
     inkscape:label="calendar"
     style="display:none"
     sodipodi:insensitive="true">
    <path
       d="M 6.5454548,7.751515e-7 H 4.3636366 V 2.1818185 H 1.0909098 L 7.751515e-7,3.2727274 V 22.909091 L 1.0909098,24 H 22.909091 L 24,22.909091 V 3.2727274 L 22.909091,2.1818185 H 19.636364 V 7.751515e-7 H 17.454546 V 2.1818185 H 6.5454548 Z M 2.1818185,8.7272729 V 4.3636366 H 21.818181 v 4.3636363 z m 0,2.1818181 v 10.90909 H 21.818181 v -10.90909 z"
       id="path1-1"
       fill-rule="evenodd" />
  </g>
  <g
     inkscape:groupmode="layer"
     id="layer19"
     inkscape:label="chat"
     style="display:none"
     sodipodi:insensitive="true">
    <path
       d="M 24,2.7928664 22.999999,1.792867 H 1.0000001 L -1.032848e-7,2.7928664 V 22.207133 L 4.4142134,17.792867 H 22.999999 L 24,16.792866 Z M 22,3.7928672 V 15.792867 H 3.5857865 L 2,17.3786 V 3.7928672 Z"
       id="path1-0" />
  </g>
  <g
     inkscape:groupmode="layer"
     id="layer20"
     inkscape:label="help"
     style="display:none"
     sodipodi:insensitive="true">
    <path
       d="M 12,1.9999998 C 6.4771467,1.9999998 1.9999994,6.4771467 1.9999994,12 c 0,3.104934 1.4139332,5.878934 3.6367728,7.714668 l 0.3632271,0.299867 V 22 H 12 C 17.522801,22 22,17.522801 22,12 22,6.4771467 17.522801,1.9999998 12,1.9999998 Z M -5.538454e-7,12 C -5.538454e-7,5.3725866 5.3725872,-5.538454e-7 12,-5.538454e-7 18.627467,-5.538454e-7 24,5.3725866 24,12 24,18.627467 18.627467,24 12,24 H 3.9999994 V 20.9444 C 1.5464521,18.7484 -5.538454e-7,15.5544 -5.538454e-7,12 Z M 13,16 v 2 H 11 V 16 Z M 9.9999983,9.9090668 c 0,-1.0255601 0.8662677,-1.9090665 2.0000017,-1.9090665 1.133732,0 2.000002,0.8835064 2.000002,1.9090665 0,0.4096012 -0.246534,0.8950682 -0.789869,1.4454662 -0.526665,0.533602 -1.196266,0.991201 -1.753068,1.351068 L 11,13.001201 V 15 h 1.999998 V 14.083068 C 13.508266,13.737333 14.110399,13.289467 14.6336,12.759466 15.309066,12.0752 16,11.106133 16,9.9090668 16,7.7213734 14.179866,6.0000001 11.999998,6.0000001 c -2.1798652,0 -3.9999987,1.7213733 -3.9999987,3.9090667 z"
       id="path1-47" />
  </g>
  <g
     inkscape:groupmode="layer"
     id="layer21"
     inkscape:label="clock"
     style="display:none"
     sodipodi:insensitive="true">
    <path
       id="path1-52"
       d="M 11.999784,0 C 5.3723711,0 0,5.3723715 0,11.999784 c 0,6.627467 5.3723711,12.000301 11.999784,12.000301 6.627467,0 12.000301,-5.372834 12.000301,-12.000301 C 24.000085,5.3723715 18.627251,0 11.999784,0 Z m 0,1.9998779 c 5.5228,0 10.000424,4.4770536 10.000424,9.9999061 0,5.5228 -4.477624,10.000424 -10.000424,10.000424 -5.522853,0 -9.9999061,-4.477624 -9.9999061,-10.000424 0,-5.5228525 4.4770531,-9.9999061 9.9999061,-9.9999061 z m -0.999939,4.0002727 v 6.4140784 l 4.293278,4.292762 1.413868,-1.413868 -3.706751,-3.707267 V 6.0001506 Z" />
  </g>
  <g
     inkscape:groupmode="layer"
     id="layer22"
     inkscape:label="terminal"
     style="display:none"
     sodipodi:insensitive="true">
    <path
       id="path1-30"
       d="M 1.2000003,1.2000007 4.8006032e-7,2.4000005 V 21.6 L 1.2000003,22.799999 H 22.799999 L 24,21.6 V 2.4000005 L 22.799999,1.2000007 Z M 2.4,3.6000003 H 21.6 V 20.4 H 2.4 Z M 6.8486251,6.3514692 5.1515623,8.0484378 9.1030313,12 5.1515623,15.951375 6.8486251,17.648438 12.497157,12 Z M 12,15.6 V 18 h 6 v -2.4 z" />
  </g>
  <g
     inkscape:groupmode="layer"
     id="layer23"
     inkscape:label="copy"
     style="display:none"
     sodipodi:insensitive="true">
    <path
       d="M 22.434783,17.73913 V 1.0434782 L 21.391304,-1.2364408e-7 H 7.8260869 L 6.7826087,1.0434782 V 5.2173914 H 2.6086956 L 1.5652174,6.2608695 V 22.956522 L 2.6086956,24 H 16.173913 l 1.043478,-1.043478 v -4.173913 h 4.173913 z M 17.217391,16.695652 V 6.2608695 L 16.173913,5.2173914 H 8.8695652 V 2.0869565 H 20.347826 V 16.695652 Z M 3.6521739,7.304348 H 15.130435 V 21.913043 H 3.6521739 Z"
       id="path1-8" />
  </g>
  <g
     inkscape:groupmode="layer"
     id="layer24"
     inkscape:label="close"
     style="display:none"
     sodipodi:insensitive="true">
    <path
       d="M 9.469704,11.999845 -4.0992755e-7,21.469549 2.5302,23.999845 12,14.530141 21.469704,23.999845 24,21.469549 14.530296,11.999845 23.999762,2.530355 21.469466,1.5457659e-4 12,9.469549 2.5304862,1.5457659e-4 2.8570972e-4,2.530355 Z"
       id="path1-9" />
  </g>
  <g
     inkscape:groupmode="layer"
     id="layer25"
     inkscape:label="check"
     style="display:none"
     sodipodi:insensitive="true">
    <path
       d="M 24,4.7655075 7.3289618,21.436421 1.2431307e-6,14.107523 2.2019301,11.905511 7.3289618,17.032605 21.797987,2.563579 Z"
       id="path1-92" />
  </g>
  <g
     inkscape:groupmode="layer"
     id="layer26"
     inkscape:label="chevron_right"
     transform="matrix(0.21186925,0,0,0.21186925,6.3093007,10.560576)"
     style="display:none"
     sodipodi:insensitive="true">
    <path
       d="M 41.379977,6.7942306 -6.0593988,-40.645492 3.1398854,-49.844776 59.778372,6.7942306 3.1398854,63.432631 -6.0593988,54.233 Z"
       id="path1-50" />
  </g>
  <g
     inkscape:groupmode="layer"
     id="layer27"
     inkscape:label="chevron_left"
     style="display:none"
     sodipodi:insensitive="true">
    <path
       d="M 8.9235543,12.000065 18.9745,1.9490458 17.025455,3.5e-7 5.0255003,12.000065 17.025455,24 18.9745,22.050881 Z"
       id="path1-50-7" />
  </g>
  <g
     inkscape:groupmode="layer"
     id="layer28"
     inkscape:label="chevron_down"
     sodipodi:insensitive="true"
     style="display:none">
    <path
       d="M 12.000065,15.076446 1.9490456,5.0255002 1.625e-7,6.9745452 12.000065,18.9745 24,6.9745452 22.050881,5.0255002 Z"
       id="path1-50-7-6" />
  </g>
  <g
     inkscape:groupmode="layer"
     id="layer29"
     inkscape:label="chevron_up"
     sodipodi:insensitive="true"
     style="display:none">
    <path
       d="M 12.000065,8.9235542 1.9490456,18.9745 1.7e-7,17.025455 12.000065,5.0255002 24,17.025455 22.050881,18.9745 Z"
       id="path1-50-7-6-5" />
  </g>
  <g
     inkscape:groupmode="layer"
     id="layer30"
     inkscape:label="clip"
     style="display:none"
     sodipodi:insensitive="true">
    <path
       d="m 10.384616,1.8461538 c -2.1207513,0 -3.9230775,1.8284924 -3.9230775,4.189354 V 16.260308 c 0,3.302031 2.5255509,5.893539 5.5384625,5.893539 3.012923,0 5.538462,-2.591508 5.538462,-5.893539 V 6.0355078 h 1.846153 V 16.260308 C 19.384616,20.487754 16.124309,24 12.000001,24 7.8756923,24 4.6153844,20.487754 4.6153844,16.260308 V 6.0355078 c 0,-3.2861787 2.537071,-6.0355080227309 5.7692316,-6.0355080227309 3.232123,0 5.769232,2.7493293227309 5.769232,6.0355080227309 V 16.260308 c 0,2.345108 -1.813786,4.331447 -4.153847,4.331447 -2.3400624,0 -4.1538472,-1.986339 -4.1538472,-4.331447 V 6.0355078 h 1.846154 V 16.260308 c 0,1.419692 1.0791392,2.485293 2.3076932,2.485293 1.228553,0 2.307692,-1.065601 2.307692,-2.485293 V 6.0355078 c 0,-2.3608616 -1.802338,-4.189354 -3.923077,-4.189354 z"
       id="path1-91" />
  </g>
  <g
     inkscape:groupmode="layer"
     id="layer31"
     inkscape:label="download"
     style="display:none"
     sodipodi:insensitive="true">
    <path
       id="path1-15"
       d="M 10.8,-1.0349032e-6 V 15.102843 L 5.6485312,9.951562 3.9514686,11.648437 12,19.697156 20.048438,11.648437 18.351563,9.951562 13.2,15.102843 V -1.0349032e-6 Z M 2.3999997,21.6 V 24 H 21.6 v -2.4 z" />
  </g>
  <g
     inkscape:groupmode="layer"
     id="layer32"
     inkscape:label="upload"
     style="display:none"
     sodipodi:insensitive="true">
    <path
       id="path1-36"
       d="M 12.000183,-4.8861139e-7 6.4661518,5.5339395 8.1287866,7.1965737 10.824344,4.5010157 V 16.946066 h 2.351311 V 4.5008319 l 2.695742,2.6957418 1.662635,-1.6626342 z M 2.5947541,9.8921318 1.4190988,11.067787 V 22.824344 L 2.5947541,24 H 21.405245 l 1.175656,-1.175656 V 11.067787 L 21.405245,9.8921318 h -5.878278 v 2.3513112 h 4.702622 v 9.405246 H 3.77041 V 12.243443 H 8.4730331 V 9.8921318 Z" />
  </g>
  <g
     inkscape:groupmode="layer"
     id="layer33"
     inkscape:label="edit"
     style="display:none"
     sodipodi:insensitive="true">
    <path
       id="path1-48"
       d="M 17.131982,-2.516544e-8 -2.516544e-8,17.132066 V 24 H 6.8680174 L 24,6.8680178 Z m 0,3.02854642516544 3.839555,3.8394714 -2.768806,2.768806 -3.839471,-3.839555 z M 12.848987,7.311542 16.688542,11.151013 5.980969,21.858502 H 2.1414976 v -3.839471 z" />
  </g>
  <g
     inkscape:groupmode="layer"
     id="layer34"
     inkscape:label="filter"
     style="display:none"
     sodipodi:insensitive="true">
    <path
       id="path1-90"
       style="stroke-width:8.81947"
       d="M 1.982454,0.91368722 0.79453335,2.5618866 2.0467267,6.3184663 2.5904524,6.9962161 8.2434203,10.387997 v 11.812976 l 2.1377287,0.88534 5.008773,-5.008773 0.366658,-0.88534 V 10.387997 L 21.409646,6.9962161 21.953274,6.3184663 23.205467,2.5618866 22.017546,0.91368722 Z M 3.7197743,3.4180738 H 20.280324 l -0.556346,1.6689389 -5.863786,3.5182717 -0.607999,1.0737558 v 6.9943788 l -2.504386,2.504387 V 9.6790402 L 10.139906,8.6052844 4.2761198,5.0870127 Z" />
  </g>
  <g
     inkscape:groupmode="layer"
     id="layer35"
     inkscape:label="file"
     style="display:none">
    <path
       id="path1-96"
       d="M 2.9999998,-4.346322e-7 V 24 H 21 V 3.5857811 L 17.414297,-4.346322e-7 Z M 4.9999999,1.9999996 H 16.585703 L 19,4.4142184 V 22 H 4.9999999 Z M 7,6.9999998 V 8.9999999 H 17 V 6.9999998 Z M 7,10.999999 V 13 H 17 V 10.999999 Z M 7,15 v 2.000001 h 5 V 15 Z" />
  </g>
</svg>
